<?xml version="1.0" encoding="utf-8"?>
<!-- Generator: Adobe Illustrator 25.3.0, SVG Export Plug-In . SVG Version: 6.00 Build 0)  -->
<svg version="1.1" id="Layer_1" xmlns="http://www.w3.org/2000/svg" xmlns:xlink="http://www.w3.org/1999/xlink" x="0px" y="0px"
	 viewBox="0 0 500 500" style="enable-background:new 0 0 500 500;" xml:space="preserve">
<style type="text/css">
	.st0{fill:#FFFF91;}
	.st1{fill:#010101;stroke:#1A160C;stroke-miterlimit:10;}
	.st2{fill:#020202;stroke:#1A160C;stroke-miterlimit:10;}
	.st3{fill:#0D0D0D;stroke:#1A160C;stroke-miterlimit:10;}
	.st4{fill:#121212;stroke:#1A160C;stroke-miterlimit:10;}
	.st5{fill:#131414;stroke:#1A160C;stroke-miterlimit:10;}
	.st6{fill:none;stroke:#000000;stroke-width:4;stroke-miterlimit:10;}
	.st7{fill:#FFFFFF;stroke:#FFFFFF;stroke-width:2;stroke-miterlimit:10;}
	.st8{fill:#FFFFFF;stroke:#000000;stroke-width:2;stroke-miterlimit:10;}
	.st9{fill:none;stroke:#0D150E;stroke-width:4;stroke-miterlimit:10;}
	.st10{fill:none;stroke:#0D150E;stroke-width:5;stroke-miterlimit:10;}
	.st11{fill:#FFFF94;}
	.st12{opacity:0.92;fill:none;stroke:#000000;stroke-width:3;stroke-miterlimit:10;}
	.st13{fill:none;stroke:#000000;stroke-width:3;stroke-miterlimit:10;}
	.st14{fill:#1E1517;}
	.st15{fill:#FFFFFF;stroke:#000000;stroke-miterlimit:10;}
</style>
<circle class="st0" cx="120" cy="274.8" r="15.7"/>
<g>
	<path class="st1" d="M206.7,89.4c-6.4,2-12.7,4.1-19.1,6.2c-3.8,1.3-6.8,0.1-7.8-2.9c-0.5-1.7-1.2-3.3-1.7-5
		c-0.3-0.6-0.3-1.4,0.8-1.7c0.9-0.3,1.3,0.3,1.4,0.9c0.5,1.7,1.2,3.3,1.7,5c0.8,2.2,2.3,2.8,5,2c2-0.6,4-1.3,6-1.9
		c10.5-3.4,21.1-6.9,31.6-10.3c3.5-1.1,4.4-2.5,3.5-5.2c-2.2-6.5-4.4-13-6.5-19.3c-0.9-2.5-2.6-3.2-5.6-2.2
		c-12.4,4.1-25,8.1-37.4,12.1c-3.2,1-4,2.4-3.2,5c0.5,1.5,1,3.1,1.5,4.6c0.3,0.6,0.3,1.3-0.6,1.5c-1,0.4-1.4-0.3-1.5-0.9
		c-0.5-1.8-1.2-3.4-1.8-5.2c-0.8-2.7,0.9-5.3,4.2-6.4c13.1-4.2,26-8.4,39-12.7c3.2-1,6.1,0,7,2.5c2.4,7,4.9,14.1,7.2,21.2
		c0.9,2.7-0.9,5.2-4.2,6.2C219.8,85.2,213.3,87.2,206.7,89.4z"/>
	<path class="st2" d="M208.4,72.2c4.6,1.5,9.2,3.1,13.8,4.7c0.4,0.1,0.8,0.3,1,0.4c0.5,0.3,0.6,0.8,0.3,1.1
		c-0.3,0.5-0.8,0.5-1.3,0.4c-0.5-0.1-0.9-0.3-1.4-0.4c-4.1-1.4-8.3-2.8-12.4-4.2c-1-0.4-1.5-0.3-2,0.6c-0.6,1.1-1.5,2-2.2,3.2
		c-0.5,0.8-1.2,1-2,0.6c-1-0.4-2-0.6-2.9-1c-1.4-0.6-2.3-0.5-3.2,1c-2.3,3.6-4.9,7-7.4,10.6c-0.4,0.6-0.8,1.5-1.9,1
		c-1-0.5-0.4-1.1,0-1.8c2.6-3.7,5.1-7.4,7.8-10.9c0.6-0.9,0.5-1.1-0.5-1.4c-4-1.3-7.9-2.7-11.9-3.9c-0.5-0.1-1-0.4-1.5-0.5
		c-0.6-0.3-1.2-0.5-0.6-1.3c0.4-0.8,1-0.6,1.7-0.5c3.3,1.1,6.7,2.2,10,3.3c3.3,1.1,6.7,2.2,10,3.3c0.9,0.4,1.3,0.1,1.8-0.6
		c3.7-5.3,7.6-10.7,11.3-16c0.3-0.4,0.5-0.8,0.9-1.1c0.4-0.4,0.8-0.6,1.3-0.4c0.6,0.3,0.6,0.6,0.5,1.1c-0.1,0.3-0.4,0.6-0.6,0.9
		C213.9,64.3,211.2,68.1,208.4,72.2z"/>
	<path class="st3" d="M175,84c-1.9,0.6-3.7,1.3-5.6,1.8c-0.8,0.3-1.7,0.4-1.9-0.4s0.5-1.1,1.3-1.4c3.8-1.3,7.7-2.5,11.6-3.8
		c0.9-0.3,1.7-0.4,1.9,0.4c0.3,0.6-0.5,1.1-1.3,1.4C179,82.6,177,83.4,175,84z"/>
	<path class="st4" d="M165.9,78.3c1.2-0.4,2.3-0.8,3.3-1.1c0.8-0.3,1.5-0.4,1.8,0.4c0.3,0.6-0.4,1-1,1.3c-2.3,0.8-4.7,1.5-7,2.3
		c-0.6,0.3-1.4,0.3-1.7-0.4c-0.3-0.8,0.4-1.1,1.2-1.4C163.6,79,164.7,78.7,165.9,78.3z"/>
	<path class="st5" d="M171.4,91.8c-0.8,0.3-1.7,0.5-2.4,0.8c-0.8,0.3-1.4,0.3-1.7-0.4c-0.3-0.6,0.3-1.1,1-1.3
		c1.8-0.6,3.6-1.1,5.2-1.7c0.6-0.3,1.3-0.1,1.4,0.5c0.3,0.6-0.3,1-1,1.3C173.2,91.3,172.3,91.5,171.4,91.8z"/>
</g>
<g>
	<line class="st6" x1="128.7" y1="205.2" x2="139.3" y2="224.6"/>
	<line class="st6" x1="127" y1="219.1" x2="146.6" y2="209.7"/>
</g>
<g>
	<line class="st6" x1="330.5" y1="134.3" x2="340.7" y2="149"/>
	<line class="st6" x1="329" y1="144.8" x2="347.5" y2="137.8"/>
</g>
<ellipse class="st7" cx="263" cy="148.9" rx="5.5" ry="5.4"/>
<rect x="289.9" y="85.7" class="st8" width="10.1" height="9.8"/>
<ellipse class="st7" cx="260.2" cy="113.1" rx="2.8" ry="2.6"/>
<ellipse class="st7" cx="189.6" cy="382.2" rx="9.5" ry="9.6"/>
<polygon class="st8" points="393,226.4 384.3,231.4 379.3,222.8 388,218 "/>
<g>
	<path class="st9" d="M137,321.6l-21.8-8.2c-5.8-2.2-8.7-8.6-6.6-14.4l6-16c2.2-5.8,8.7-8.8,14.5-6.6l22,8.2
		c5.5,2.1,8.3,8.2,6.3,13.7l-6.3,16.9C149,320.8,142.7,323.7,137,321.6z"/>
	
		<ellipse transform="matrix(0.3497 -0.9369 0.9369 0.3497 -195.5218 318.4922)" class="st10" cx="131.7" cy="300.1" rx="9.1" ry="9.6"/>
	
		<ellipse transform="matrix(0.3497 -0.9369 0.9369 0.3497 -177.2773 329.069)" class="st9" cx="148.4" cy="292.2" rx="3.1" ry="3.3"/>
</g>
<circle class="st11" cx="180.7" cy="393.3" r="2.7"/>
<circle class="st0" cx="229.6" cy="136.9" r="18"/>
<rect x="317.4" y="371.9" transform="matrix(0.866 -0.5 0.5 0.866 -147.0137 214.7112)" class="st12" width="19.5" height="19.5"/>
<polyline class="st13" points="32.1,367.3 41.3,375.2 33.1,384.3 "/>
<polyline class="st13" points="55.1,368.6 64.3,376.5 56.1,385.6 "/>
<polyline class="st13" points="43.3,368.4 52.5,376.3 44.2,385.4 "/>
<polyline class="st13" points="479,110.7 469.4,118.1 477.1,127.6 "/>
<polyline class="st13" points="455.9,110.7 446.3,118.2 454.1,127.7 "/>
<polyline class="st13" points="467.8,111.2 458.2,118.6 466,128.1 "/>
<g>
	<path class="st14" d="M342.1,338.4l-1.4-4.4c-0.6-1.8-0.3-3.4,0.8-4.9c1.1-1.5,2.9-2.6,5.4-3.4l2.9-0.9l1.9,6l-1.8,0.6
		c-0.5,0.2-0.9,0.5-1.1,0.9c-0.2,0.4-0.3,0.9-0.1,1.4l0.8,2.5l3.6-1.2l1.6,5l-3.6,1.2l4.5,14.1l-7.3,2.3l-4.5-14.1l-2.6,0.8l-1.6-5
		L342.1,338.4z"/>
</g>
<circle class="st15" cx="441.2" cy="365.7" r="5.5"/>
</svg>
