<?xml version="1.0" encoding="utf-8"?>
<!-- Generator: Adobe Illustrator 25.3.0, SVG Export Plug-In . SVG Version: 6.00 Build 0)  -->
<svg version="1.0" id="Layer_1" xmlns="http://www.w3.org/2000/svg" xmlns:xlink="http://www.w3.org/1999/xlink" x="0px" y="0px"
	 viewBox="0 0 500 500" style="enable-background:new 0 0 500 500;" xml:space="preserve">
<style type="text/css">
	.st0{fill:#000F2D;stroke:#000F2D;stroke-width:44;stroke-miterlimit:10;}
	.st1{fill:#DE6B26;stroke:#DE6B26;stroke-width:35;stroke-miterlimit:10;}
	.st2{fill:none;stroke:#000339;stroke-width:38;stroke-miterlimit:10;}
</style>
<path class="st0" d="M245.9,328.6c-17.5-0.5-39.1,1.2-60.7-0.7c-17.4-1.5-30.9-15-31.1-30.5c-0.2-14.4-0.2-28.8,0.1-43.2
	c0.1-3.4-1.1-4.3-4.7-4.7c-16.1-1.6-27.1-9.3-32.3-22.7c-5.3-13.5-1-25.4,10.3-35.4c31.6-27.9,63.2-55.8,95-83.4
	c16.6-14.4,40-14.2,56.6,0.3c31.5,27.5,62.6,55.2,94.2,82.5c21.4,18.5,13.9,45.2-7.5,55.1c-4.1,1.9-8.4,3.3-13.1,3.4
	c-4.1,0.1-5.6,1.4-5.5,5.3c0.3,13.1,0.1,26.2,0.1,39.3c0,21.1-14.9,34.5-39.1,34.6C288.7,328.7,269.4,328.6,245.9,328.6z"/>
<path class="st1" d="M311.3,228.8c0,32.1-26.4,58.2-59,58.2s-59-26-59-58.2s26.4-58.2,59-58.2c0.1,0,0.3,0,0.4,0
	C275.8,170.8,311.3,192,311.3,228.8z"/>
<path class="st2" d="M266.3,185.8c-17.2-5.2-32.1,4.3-34.9,6.1c-17.3,11-20.3,29.2-20.6,31.4c-0.2,1.5-2.9,22.1,12.9,37.3
	c12,11.6,30.2,15.5,47.2,10.3"/>
<path class="st0" d="M131.1,119.6L131.1,119.6c-5.9,0-11.6,1.2-11.6-4.7V79.7c0-5.9,4.8-10.7,10.7-10.7l0,0
	c5.9,0,10.7,4.8,10.7,10.7v35.1C141,120.8,137,119.6,131.1,119.6z"/>
</svg>
