<svg xmlns="http://www.w3.org/2000/svg" viewBox="0 0 1366 768"><defs><style>.a{fill:#f2f2f2;}.b,.c{fill:#fff;}.c{opacity:0.96;}</style></defs><rect class="a" x="-2.54" y="1.85" width="1368.69" height="771"/><path d="M448.84,61.19c-8.12-2.18-10.49,4.74-13.5,8.82-56.83-19.68-106.21-7-149.91,33.17-8.13,7.48-12.79,17.27-16.68,27.59-2.5,6.66-5.12,13.4-8.69,19.47-5.56,9.48-21.34,12.1-30.47,4.58,3.84.25,6.56.45,9.28.59,1.46.08,3.08.5,4.35,0a59.41,59.41,0,0,0,6.85-3.66c-1.76-1.6-3.5-3.23-5.29-4.79a12.21,12.21,0,0,0-1.93-1.11c2.44-2.68,5-5,6.94-7.85,1.11-1.63,1.13-4,1.64-6.11-1.94.41-3.9.73-5.8,1.26-.8.23-1.48.89-3.63,2.25,1.5-2.71,2.54-4,2.92-5.41a42.38,42.38,0,0,0,.73-6.09c-1.9.67-4,1-5.66,2.09-2.08,1.35-3.81,3.29-6.78,4.28.95-2.49,2.27-4.9,2.76-7.48.43-2.32-.05-4.82-.12-7.24-2.16,1.19-4.38,2.29-6.45,3.64-.68.44-1,1.53-1.55,2.53l-3.91-7.84c-8.27,12.81-1,23.68.79,34.64l-1.42.4c-.91-3.21-2.06-6.38-2.68-9.65-1.57-8.3-4.19-10.05-11.13-5.47-12.47,8.24-24.59,17-36.67,25.89-16.59,12.16-33.5,23.76-52.68,31.18-5.39,2.09-11.29,2.93-17,3.83-2.34.36-4.89-.64-7.45-1,2.51-15.88-5.53-25.3-16.72-32.79-3.28-2.2-6-4.2-7.25-8.52-1.54-5.36-6.2-5.16-10.54-4-10,2.71-17.76,12.56-18.46,23.63-.74,11.56,3.55,21,12.23,28.28,1.53,1.28,3.42,2.79,5.22,2.91,2.76.17,5.59-.77,8.39-1.24-1.91-1.94-3.55-4.38-5.8-5.7-2.93-1.73-6.68-2.22-7.17-6.61.48-.37.78-.79,1-.76,8.9.91,8.89.78,6.6-8.35-1.05-4.16-2-8.53-1.85-12.75A15.6,15.6,0,0,1,65,159.3c2.4-3,5.75-1.8,6.1,2a18.57,18.57,0,0,0,9.32,15.07c1.34.83,3.09,3.23,2.76,4.28-2,6.54,2.28,9.26,6.29,12.3.56.42,1,.94,3.09,2.79-4.63.91-8,1.35-11.27,2.31-2,.61-3.86,2-5.78,3,2,1.18,3.93,3.12,6,3.37,3.4.41,6.92-.51,10.39-.47,7,.06,9.15,3.19,7.26,10.21-2.75,10.24-8.75,14.2-18.89,12.49-15.66-2.64-17-2.05-23.94,12.93-8.15,17.62-14.76,35.79-16.26,55.48A60.2,60.2,0,0,0,40.4,307c1.38,11.23,8.18,16.68,18.8,13.87,8.25-2.17,16.09-6,24.08-9.22a50.4,50.4,0,0,0,5.28-2.94c9.63,21.73,15.77,43.91,15.61,68.15L92.6,378.41c-.93-7.5-1.54-14.6-2.78-21.58a67.72,67.72,0,0,0-4.07-14.6c-3.17-7.46-9-9.93-16.23-6.83A47.37,47.37,0,0,0,44.61,359c-4.09,8.58-1.67,16,7.24,18.36,9.61,2.56,19.76,3,29.69,4.19a68.84,68.84,0,0,0,7.9,0v13.73c-4,1.25-7.56,2.76-11.24,3.33-2.09.33-4.53-.55-6.59-1.45-8.06-3.51-13.06-.2-11.64,8.67,1.74,10.88,3.11,21.55.7,32.55-.45,2,2.31,4.82,3.6,7.26,2.22-1.31,5.19-2.1,6.48-4.07,1.87-2.88,2.68-6.56,3.69-10,2.17-7.4,2.6-7.75,11.47-6.95-1.14,3.45-1.91,6.85-3.33,9.94-7.25,15.65-14.78,31.17-21.95,46.86A99,99,0,0,0,55,497.38c-1.11,4.18-1.43,8.78,2.34,12.09s7.93,2.35,12,.83c11.8-4.41,19.71-13,23.52-25.15a112.39,112.39,0,0,0,3.55-51.47c-.58-3.64-3.25-6.92-4.86-10.41-.65-1.39-1.59-3-1.44-4.35.68-6.16,1.69-12.28,2.66-18.92,10.4.14,12.41-7.75,13.46-16.19.36-2.93.84-4.86,4.13-5.47,20.74-3.8,38.71-12.5,51.15-32.45a32.46,32.46,0,0,1,1,4.46A251.78,251.78,0,0,1,158.79,409a53,53,0,0,1-3.31,10.76c-4.54,10.69-13.14,13.51-23.34,7.94.49-6.75,1.46-13.5,1.32-20.23A43.53,43.53,0,0,0,130.68,392c-1.18-2.85-5.33-6.33-7.9-6.13-3,.22-7.29,3.53-8.39,6.53-4,11-.87,21.07,6,30.1a4.06,4.06,0,0,0,1.14,1.22c8.4,4.16,6.5,10.85,4.61,18-7.47,28.28-18.48,54.8-35.52,78.46-9.69-6.41-18-7.09-21.79-1.91C66,522.16,67,530.08,70.8,534s6.64,3.1,17.54-6.18c3.16,5.68,6.67,11.26,9.32,17.24.68,1.51-.72,5.14-2.25,6.34-4.3,3.41-9.27,2.19-13.43-.43a181.76,181.76,0,0,1-16.09-11.75c-5.94-4.72-11.53-9.91-17.47-14.63C34,513.18,17.42,509.39-.51,509.48c-24.49.12-46.9,8.16-68.92,18-11.2,5-22.33,10.09-33.48,15.18a7.69,7.69,0,0,0-4,3.76,5.94,5.94,0,0,0,2.27,0c15.24-7,30.23-14.66,45.74-21C-32.8,514.75-6,507.83,22.31,514.53c10.17,2.41,19.08,7.48,27.18,14.18,8.84,7.33,17.43,15,26.72,21.7a29.45,29.45,0,0,0,14.66,5.1c3,.19,7.45-2.79,9.1-5.65,1.16-2-1-6.34-2.19-9.46-1.79-4.88-4.13-9.54-5.84-14.44-.43-1.24.24-3.32,1.08-4.51,18.55-26.17,30.17-55.48,37.36-86.83.2-.9.52-1.77.81-2.65.06-.15.25-.25.49-.48a6.86,6.86,0,0,1,1.5,0c15,3.37,22.36-.43,26.4-15.66,5.91-22.22,6.65-45,5.17-67.95-.11-1.7-1.26-3.32-1.93-5-1.54,1.11-3.55,1.88-4.53,3.38C146.69,364,129.61,372,110.09,375.8a6.41,6.41,0,0,1-1.64.12,3.21,3.21,0,0,1-.92-.29c-1.2-9.35-1.59-18.85-3.77-27.9a350,350,0,0,0-11-35.49c-1.38-3.87-1.59-6,1.4-9.19a33.19,33.19,0,0,0,6.73-11.4c1.81-5.13-1-8.34-6.31-8.46-9.7-.2-14.06,6.26-10.53,15.58,3,8.06,3.22,8.44-4.48,11.86a127.55,127.55,0,0,1-21.69,7.7c-8.36,2-13.56-1.37-14.44-10.17-.84-8.3-1.05-17.27,1.15-25.15a393.11,393.11,0,0,1,16.26-46.09c4.27-10.2,6.23-10.3,16.81-8,13,2.81,20.86-1.8,24-14,2.31-8.89-1-13.37-10-13.48a100.72,100.72,0,0,1-10.37-.4c7.36.78,12.92-5.17,21.17-4.09,7.39,1,15.79-2.46,23.13-5.53,20.67-8.64,38.69-22,56.61-35.46,8-6,16.16-11.73,24.38-17.37,2.8-1.93,6-3.21,9.39-5,3.87,7.44.93,17.88,11.93,20.3l-1.18,1.31c-1.23-.25-2.49-.41-3.69-.78-4.72-1.45-9.37-3.86-14.16-4.19s-10.75-.14-14,2.6c-14.4,12.3-28.18,25.76-33.73,44.91-2.5,8.66-2,18.24-2.89,27.39-.62,6.3-1.16,12.62-2,18.89-1.89,14.17-4.11,28.29-5.8,42.49a24,24,0,0,0,1.49,10c.61,1.81,2.73,4.14,4.3,4.24s4.28-1.94,4.79-3.59c1.57-5.15,3.33-10.58,3.24-15.87-.23-13-1.26-26-2.3-39-1.73-21.76,16-44.3,37-46.59,6.54-.71,13.15-.78,19.72-1.32,13.93-1.14,18-6.42,16-20.71-.6-4.23-1.75-8.37-2.73-12.9,4.06.33,7.84.87,11.61.89,8.77,0,15.74-3.74,19.79-11.84a192.79,192.79,0,0,0,8.52-20.19,69.4,69.4,0,0,1,20.51-29.54c34.42-29.55,73.62-41.81,118.05-34.56,7.11,1.16,14,4.32,20.78,7,1.45.56,2.6,2.74,3.29,4.43,2.09,5.14,2.86,11.22,6,15.45a139.68,139.68,0,0,0,20.14,22.17c8.38,7.25,18.29,7.83,28.26,2.37,7.21-4,9.65-3.62,15.48,2.48,3.59,3.75,6.72,8,10.05,12,6.16,7.4,13.94,9.77,22.76,6.66,7.41-2.61,14.91-5.45,21.69-9.42,27.9-16.32,57.39-20.51,88.58-13.7,2.54.55,5.15.7,8.61,1.15-.89-1.53-1.09-2.28-1.41-2.35-26-5.24-51.86-8-77.14,3.33-7.88,3.53-15.62,7.42-23.44,11.1-4.49,2.11-8.93,4.39-13.54,6.16-12.16,4.66-18.22,2.79-26.54-7.45a138.25,138.25,0,0,0-10.38-11.63c-4.17-4.09-9.19-4.76-14.13-1.55-11.51,7.47-22.95,4.12-31.53-4.47a153.19,153.19,0,0,1-15.79-18.74c-2.68-3.71-3.91-8.52-5.79-12.84l1.84-1.16c2.95,3.48,5.74,7.1,8.87,10.4,6.47,6.83,12.38,14.59,19.87,19.95,10.44,7.47,15.63,5.68,23.84-4.38a5.84,5.84,0,0,1,4.92-1.54c6.59,1.59,13.05,3.71,19.59,5.5a67.57,67.57,0,0,0,7.17,1,59.25,59.25,0,0,0-3.29-6.27c-10.21-14.24-20.35-28.53-30.86-42.53-1.87-2.48-5.2-4-8.14-5.38-16.19-7.47-32.78-14.11-47-25.43a8,8,0,0,0-2.44-1.13c-.24-.08-.62.28-1.51.72q2.94,6.2,5.86,12.39c2.26,4.78,2.1,8.35-3.58,10.64-3.71,1.49-6.94,4.24-10.95,6.79,6.26,3.64,11.08,1.47,19.42-7.91,3,4,5.87,7.94,8.73,11.85,4.86,15.53,12.87,28,29.69,32-11.63-1.3-21.2-6-27.25-16.47C448.48,72,446.7,66.83,448.84,61.19ZM162.06,225.09c-1.94-14.73-.71-29,8.14-41.05,6.6-9,14.07-17.34,21.48-25.67,4.78-5.37,11-7.52,18-5.54,5.63,1.6,11.16,3.63,16.65,5.71a5.18,5.18,0,0,1,2.83,3c1.36,5.65,2.88,11.35,3.38,17.12.71,8-2.28,11.48-10.12,12.47-5.8.74-11.66,1-17.51,1.25-19,.71-32.69,9.62-40.51,27.7C163.69,221.79,162.85,223.43,162.06,225.09ZM436,34.81c15.36,7.37,30.59,14.62,45.75,22a13.47,13.47,0,0,1,5,4.08c6.16,8.65,12,17.55,18.16,26.18,4,5.55,8.37,10.78,13.44,17.26-3.22-.8-5.19-1.09-7-1.77C499.22,98,487.21,93.17,475,88.82c-9.81-3.5-16.29-10.06-20.47-19.81C451.79,62.5,449,55.2,444.12,50.66,438.94,45.86,438.73,39.82,436,34.81ZM90.41,424.25c1.44,4.27,3.62,7.84,3.69,11.45.21,11.82.4,23.74-.88,35.45-.8,7.29-3.6,14.59-6.72,21.28-3.8,8.14-10.88,13.13-19.25,15.73-7.56,2.35-11.53-1.33-10-9.25a45.58,45.58,0,0,1,3.25-10.77C70.1,467.27,80,446.5,90.41,424.25Zm0-45.94c-13.19,1.34-24.82,1.2-36.12-2.51-9.07-3-11.26-8.92-6.56-17.48A47.7,47.7,0,0,1,67,339.47c9.15-5.08,15.22-2.9,17.92,7.55C87.45,356.94,88.54,367.25,90.44,378.31Zm-.51,21.29c-.72,5.91-1.51,11.08-1.92,16.28-.32,4.18-2,6-6.23,5.65C76.53,421,73.72,424,72.47,429a43.59,43.59,0,0,1-2.85,9.1c-1,1.89-3.07,3.16-4.67,4.71-.53-2.15-1.46-4.28-1.53-6.45Q63,423,63,409.56c0-3.4.53-6.81.82-10.22,3.21.59,6.43,1.14,9.62,1.8.42.09.72.76,1.28,1.4-2.48,5.17-2.09,10,3.12,13,1.63.93,5.34.89,6.27-.26,4.48-5.57,1.57-10.61-3.14-15.71ZM65.18,200.17,64.37,202c-2.55-1.2-5.48-1.93-7.6-3.69-9.12-7.56-13.3-17.36-11-29.45,1.82-9.38,7.76-15.16,16.4-18,3.37-1.12,6.46-.82,7.48,3.92-6.66.26-9.84,4.64-10.61,10.39-.58,4.33.36,8.91.89,13.35.33,2.67,1.17,5.28,1.88,8.36a17.66,17.66,0,0,0-3.46-.45c-1.67.17-4.09,0-4.77,1a5.57,5.57,0,0,0,.16,5.13,24.08,24.08,0,0,0,6.09,5.3A31.7,31.7,0,0,0,65.18,200.17ZM489.17,99c-4.69,9.56-9.19,12-17,7.56-6.27-3.54-11.9-8.59-17.09-13.74-4.83-4.81-8.45-10.9-13.08-16-5.26-5.75-4.69-9.28,2.9-12.63C448.15,90.7,468.36,94.94,489.17,99ZM129.24,425.89c-10.37-3.84-16-20.64-13.48-30.15,1-3.78,2.7-8,6.91-7.21,2.58.51,5.69,4,6.56,6.82C132.35,405.39,131.08,415.63,129.24,425.89Zm112.6-297.84c-3.68,8.83-3.68,8.83-2.37,12.4,1.43-.84,2.81-1.6,4.14-2.46s2.67-1.84,4-2.77a5,5,0,0,1-1.51,3.35c-7,7.25-7,7.24.4,13.74-5.49.2-11.17.44-16.26-1.23-2.09-.68-3-5.45-4.25-8.44a25.8,25.8,0,0,1-1.78-5.93c-.8-5.18-1.37-10.4-2-15.6l1.75-.28c.69,2.58,1.37,5.16,2.44,9.13l7.14-12.13,1.43.82a72.35,72.35,0,0,0-3.49,8.67c-.47,1.72.13,3.76.25,5.65,1.85-.34,3.88-.3,5.51-1.11S240.31,129.36,241.84,128.05ZM157.19,299.54c-6.14-8.4-3.9-43.6,2.84-54.22C159.93,263.56,166,281.29,157.19,299.54ZM76.66,517.34c5.92,0,12.21,4.14,10.72,5.93a42.77,42.77,0,0,1-11.84,10c-2.44,1.34-5.9-4.45-5.77-9.32C69.91,518.63,73.31,517.45,76.66,517.34ZM74.19,161.72c13.29,5.2,21.92,19.34,17.6,31.49-2.48-4-6-7-5.92-10,.16-5-1.55-7.75-5.33-10C76.32,170.7,73.85,167.1,74.19,161.72ZM103.09,380c2,9.55-2.64,17.09-10.16,16.47C90.11,382.45,91,381,103.09,380ZM90.61,304.18l-1.74-.78c-.88-2.06-1.86-4.09-2.62-6.19-2.52-7,.65-11.39,8-11.33,3.94,0,5.76,2.24,4.11,5.75C96.23,296.06,93.22,300,90.61,304.18Zm-12.47,98.7c4.89,2.27,7,6.56,4.8,9.71-.57.81-3.06,1.18-3.93.59C75,410.44,75,406.94,78.14,402.88Z"/><path class="b" d="M113.14,394.88c-3.14,4.06-3.18,7.56.87,10.3.87.59,3.36.22,3.93-.59C120.15,401.44,118,397.15,113.14,394.88Z"/><rect class="c" x="211.53" y="170" width="937.55" height="587.46" rx="12"/></svg>