<svg xmlns="http://www.w3.org/2000/svg" viewBox="0 0 500 500"><defs><style>.a{fill:#fff9df;}</style></defs><circle class="a" cx="250" cy="250" r="211"/><path d="M250,38.5C133.19,38.5,38.5,133.19,38.5,250S133.19,461.5,250,461.5,461.5,366.81,461.5,250,366.81,38.5,250,38.5Zm76.4,281.4c-12.21,8.72-26.17,13.09-40.7,15.67-32,5.69-63.78,5-94.54-6.6-7.63-2.88-14.72-7.65-21.41-12.46-5.79-4.16-8.26-10.56-8.15-17.95.18-12.83,0-25.67.06-38.51,0-1.28.2-2.56.35-4.41l32.31,9.89c17.19,5.28,34.34,10.66,51.59,15.75a15.14,15.14,0,0,0,8.15,0c26-7.82,51.91-15.86,77.85-23.82,1.88-.58,3.78-1.08,6.34-1.8v5.51c0,11.84-.39,23.69.13,35.51C338.83,307,334.34,314.23,326.4,319.9Zm55.9-97q-64.1,20.87-128.23,41.58a11.18,11.18,0,0,1-6.24.46c-29.62-9-59.18-18.2-88.75-27.36-.92-.28-1.8-.72-3.65-1.47,5.59-2.15,10.2-3.87,14.74-5.75.53-.22.67-1.39,1.36-2.95-6.68,1.49-12.67,2.67-18.53,4.29-1,.27-2,2.4-2.05,3.74-1.31,20.12-2.6,40.24-3.55,60.38-.18,3.72-1.61,5.34-4.82,6.39a30.62,30.62,0,0,1-19.61-.31c-3-1-4.12-2.57-4.15-5.78-.12-14,4.2-26.94,8.73-39.81,3.36-9.57,7.49-18.87,11.49-28.2a6.74,6.74,0,0,1,3.5-2.89,47.43,47.43,0,0,1,6.66-1.71c-6.14-3.2-12-1.37-16,4.79l-30.9-11c5-2,8.92-3.63,12.88-5.15q65.71-25.27,131.48-50.45a9.41,9.41,0,0,1,6.11-.35Q323.92,188.51,395,216c.6.23,1.14.56,2.73,1.36C392,219.39,387.2,221.3,382.3,222.89Z"/></svg>