<?xml version="1.0" encoding="utf-8"?>
<!-- Generator: Adobe Illustrator 25.3.0, SVG Export Plug-In . SVG Version: 6.00 Build 0)  -->
<svg version="1.0" id="Layer_1" xmlns="http://www.w3.org/2000/svg" xmlns:xlink="http://www.w3.org/1999/xlink" x="0px" y="0px"
	 viewBox="0 0 500 500" style="enable-background:new 0 0 500 500;" xml:space="preserve">
<style type="text/css">
	.st0{fill:#FFFFFF;stroke:#FFFFFF;stroke-width:10;stroke-miterlimit:10;}
</style>
<path class="st0" d="M261.7,135.3c5.8-4.9,12.8-6.4,20.1-7.1c12-1.1,12-0.4,24.1-0.4c3.2-14.5,14.7-38.7,15.1-43.2
	c0.2-2.4-0.8-2.9-3-2.9c-16,0.1-32.1-0.2-48.1,0.1c-16.4,0.3-32,3.9-46.2,12.7c-15.7,9.8-24.6,24.1-28.9,41.6
	c-1.4,5.9-1.6,12-1.6,18.1c0.1,14.3-0.1,28.5,0.1,42.8c0,3.1-0.9,3.5-3.7,3.5c-17-0.1-34,0-50.9-0.1c-2.7,0-3.2,0.8-3.2,3.3
	c0.1,14.4,0.1,28.8,0,43.1c0,2.4,0.3,3.4,3.1,3.4c17-0.2,34,0,50.9-0.2c3.1,0,3.8,0.8,3.8,3.8c-0.1,45.6-0.1,91.2-0.1,136.7
	c0,2.5,0.5,3.3,3.2,3.3c17.7-0.1,35.4-0.1,53,0c2.8,0,3.5-0.7,3.5-3.5c-0.1-22.9-0.1-45.8-0.1-68.7c0-22.8,0-45.6-0.1-68.4
	c0-2.6,0.5-3.3,3.2-3.3c17.3,0.1,26.5,0,42,0.1c1,0,2,0,3,0c0.3-0.1,0.6-0.1,1-0.1h0.2c2.9-4.7,7.4-18,15.9-45.6
	c0-3.3-0.6-4.3-4.1-4.3c-19.4,0.2-38.9,0.1-58.3,0.1c-1.5,0-3,0.4-3-2.1c0.2-15.1,0-30.2,0.3-45.2
	C253.3,146.1,256.2,140,261.7,135.3z"/>
</svg>
