<?xml version="1.0" encoding="utf-8"?>
<!-- Generator: Adobe Illustrator 25.3.0, SVG Export Plug-In . SVG Version: 6.00 Build 0)  -->
<svg version="1.1" id="Layer_1" xmlns="http://www.w3.org/2000/svg" xmlns:xlink="http://www.w3.org/1999/xlink" x="0px" y="0px"
	 viewBox="0 0 500 500" style="enable-background:new 0 0 500 500;" xml:space="preserve">
<style type="text/css">
	.st0{fill:#FFFFFF;}
	.st1{fill:#171516;}
</style>
<g>
	<path class="st0" d="M252.4,458.8c-100.8,0.8-188.6-71.1-207.6-170.2C22.5,172.9,99.7,61.1,214.5,42.6
		c86.8-14,156.9,16.2,207.2,85.6c71.9,99,41,238.3-64.8,301.6C326.5,448,288.6,458.5,252.4,458.8z"/>
	<path class="st1" d="M213.5,337.8c-6.5,8.7-10.8,17.3-12.7,26.7c-0.7,3.6-3.4,4.4-6.3,5.6c-22.1,8.8-42.9,3.1-56.7-16
		c-4.6-6.4-8.8-13-15.2-18c-4.3-3.3-8.8-6.2-14.1-7.3c-5.8-1.2-13.7-4.1-16.7,2c-2.7,5.5,5.1,8.1,9.2,10.9
		c9.4,6.4,16.5,14.9,20.2,25.1c12.3,33,38.7,40.9,68.7,36.7c9.2-1.3,11.3,0.9,10.6,9.2c-0.6,7.7,0.2,15.6,0.2,23.4
		c0,13.6-6.6,18.1-20,13.3c-29.2-10.4-55.3-25.6-77.9-46.3C-11.7,299,12.2,116.1,149.8,42.8c110-58.6,250.3-13.9,306,97.5
		c54.3,108.7,12,237.9-97,295.9c-9.4,5-19.3,9.2-29.4,12.7c-10.9,3.8-17.2-0.7-17.5-11.9c-0.4-16-0.2-31.9-0.3-47.9
		c-0.2-28.8-0.3-29-13.3-52.1c15-3,30-5.3,44.1-11.3c39.2-16.8,52.3-48.8,55-86.9c1.7-24.5-2.9-47.4-19.3-66.9
		c-3-3.6-3.6-6.6-2.2-11c4.6-15.1,2.5-30-1.7-44.9c-2-6.9-5.7-8.8-12.4-7.7c-15.1,2.4-28.5,8.7-41,16.8c-7.1,4.6-13.4,6-22.3,4.2
		c-31.2-6.5-62.6-6.1-93.6,1.7c-6,1.5-10.2,0-14.9-3c-13.3-8.3-27.3-15-43.1-17.8c-7.4-1.3-12,0-14,8.5c-3.4,14.3-5.6,28.5-1.1,42.8
		c1.8,5.6,1,9.5-2.8,14c-30.2,35.4-20.1,115.8,20.9,142C168.8,329.6,190,334.6,213.5,337.8z"/>
</g>
</svg>
