<svg xmlns="http://www.w3.org/2000/svg" viewBox="0 0 1342 702"><defs><style>.a{fill:none;stroke:#ccc;isolation:isolate;opacity:0.5;}.a,.c{stroke-miterlimit:10;}.b{opacity:0.08;}.c{stroke:#000;stroke-width:2px;}</style></defs><path class="a" d="M437.9,213.9V96.8H601.4V-1.5H117.2V96.8H262.3c10.2,0,18.3,7.6,18.3,17.3v99.8"/><path class="a" d="M280.1,483.8v79.9c0,7.1-6.1,12.7-13.8,12.7H138c-11.7,0-20.9,8.7-20.9,18.8v91.7l-99.3-.5"/><path class="a" d="M432.3,483.8v77.9c0,8.1,7.1,14.8,16.3,14.8H595.7v84c0,14.8,13.2,27,29.5,27H733.7c21.9,0,39.2-15.8,39.2-35.6V2.6l321.8,227.1c6.6,4.6,16.8,3.6,21.9-2.6L1340.2,2.6"/><g class="b"><path class="c" d="M692.5,14.8a7.37,7.37,0,0,1,7.6,7.1V43.8c0,15.3-2.5,27-7.1,36.2-4.1,7.1-10.7,11.7-19.9,13.2-3.6.5-7.1-1-8.7-3.6h0a6.9,6.9,0,0,1,3-9.2,13.87,13.87,0,0,0,7.2-7.1c2-4.1,3.1-9.7,3.6-17.3,0-4.1-3.1-7.1-7.6-7.1h-6.1a7.37,7.37,0,0,1-7.6-7.1V21.9a7.3,7.3,0,0,1,7.6-7.1Z"/></g></svg>