<?xml version="1.0" encoding="utf-8"?>
<!-- Generator: Adobe Illustrator 25.3.0, SVG Export Plug-In . SVG Version: 6.00 Build 0)  -->
<svg version="1.0" id="Layer_1" xmlns="http://www.w3.org/2000/svg" xmlns:xlink="http://www.w3.org/1999/xlink" x="0px" y="0px"
	 viewBox="0 0 500 500" style="enable-background:new 0 0 500 500;" xml:space="preserve">
<style type="text/css">
	.st0{fill:none;stroke:#FFFFFF;stroke-width:30;stroke-miterlimit:10;}
	.st1{fill:#F5D8DB;stroke:#FFFFFF;stroke-width:13;stroke-miterlimit:10;}
	.st2{fill:#E7DADD;stroke:#FFFFFF;stroke-width:13;stroke-miterlimit:10;}
	.st3{fill:#E7DCDC;stroke:#FFFFFF;stroke-width:13;stroke-miterlimit:10;}
	.st4{fill:#EFD8D8;stroke:#FFFFFF;stroke-width:13;stroke-miterlimit:10;}
	.st5{fill:#FFFFFF;stroke:#FFFFFF;stroke-miterlimit:10;}
</style>
<path class="st0" d="M93.5,185.7c1.5-8.7,1.7-17.7,4.3-26.3c4.5-15.4,13.1-28.5,25.3-39.6c0-0.7,0.3-1.4,0.8-1.9
	c6.4-5.5,13.7-9.8,21.8-13c0.6-0.2,1.4-0.3,2.2,0c21.1-7.4,43-9.3,65.3-9.1c33,0.3,66,0.1,99,0.1c20.9,0,41.6,1.6,61.3,9
	c3-0.7,4.9,1.4,7.2,2.4c0.7,0.4,1.3,0.8,2,1.1c1.4,0.9,3.2,1.5,3.8,3.2c16.9,11.2,27.9,26.4,34.7,44.5l0,0
	c3.2,10.8,4.1,21.9,6.3,32.9c0.7,1.2,0.4,2.4,0.4,3.6c0,38.8,0,77.5,0,116.3c0,1.2,0.3,2.5-0.4,3.6c-2,6.4-1.6,13-2.6,19.5
	c-4.9,35-30.1,61.8-66.9,70.2c-14,3.2-28.3,5-42.7,5c-37.1,0-74.2,0.3-111.4-0.1c-22.1-0.2-44-2.3-64-12.3c-0.2,0-0.4,0-0.6,0
	c-1.3,0.1-2.4-0.5-3.6-0.8c-6.9-3.7-13-8.2-17-14.8c-14.7-15.6-22.1-34-24.1-54.5c-0.1-1.3-0.6-2.7-0.8-4c-1.1-2.4-1.2-5-1.2-7.6
	c0-40.9,0-81.9,0-122.8C92.5,188.8,92,187,93.5,185.7z"/>
<path class="st1" d="M189.4,92.6c4.5,3.2,9.5-0.2,14.2,0.8c42.5,0,84.9,0,127.4,0c-0.4,1.9-2.1,1.6-3.5,1.6c-44.9,0-89.7,0-134.6,0
	C191,95.1,189.2,95,189.4,92.6z"/>
<path class="st2" d="M93.5,185.7c-0.2,2.2-0.5,4.3-0.5,6.5c0,39.5,0,78.9,0,118.4c0,3.4,0.5,6.8,0.7,10.2c-2.3-0.6-1.6-2.3-1.6-3.7
	c0-42.6,0-85.3,0-127.9C92.1,187.9,91.6,186.3,93.5,185.7z"/>
<path class="st3" d="M427.4,312.6c0-41.2,0-82.4,0-123.6c1.3,1.2,0.8,2.8,0.8,4.3c0,38.3,0,76.6,0,115
	C428.2,309.7,428.7,311.3,427.4,312.6z"/>
<path class="st4" d="M139.9,394.9c-1.4-0.1-3.2,0.5-3.6-1.6C137.9,393.1,138.9,394,139.9,394.9z"/>
<path class="st4" d="M380.5,108.2c0.5-0.4,1.3-1.3,1.6-1.1c1,0.5-0.1,1.4,0.1,2.1C381.6,108.9,381.1,108.5,380.5,108.2z"/>
<path class="st0" d="M260.4,207c34.4-0.1,61.7,25.6,61.8,58c0,32.4-27.2,58.2-61.5,58.3c-34,0.1-61.7-25.5-62.1-56.8
	C198.1,233.2,225.8,206.7,260.4,207z"/>
<path class="st5" d="M373,163.4c-0.1,13.3-11.5,23.4-26.2,23.3c-14.8-0.1-26.5-10.8-26.3-24c0.2-13,12.1-23.1,26.9-22.8
	C362.9,140.2,373.2,149.7,373,163.4z"/>
</svg>
