<?xml version="1.0" encoding="utf-8"?>
<!-- Generator: Adobe Illustrator 25.3.0, SVG Export Plug-In . SVG Version: 6.00 Build 0)  -->
<svg version="1.1" id="Layer_1" xmlns="http://www.w3.org/2000/svg" xmlns:xlink="http://www.w3.org/1999/xlink" x="0px" y="0px"
	 viewBox="0 0 500 500" style="enable-background:new 0 0 500 500;" xml:space="preserve">
<style type="text/css">
	.st0{fill:#FFFFFF;stroke:#000000;stroke-miterlimit:10;}
</style>
<path class="st0" d="M335.4,246.1c-3.3-21.4-18.1-27.7-37.9-26.1c-19.7,1.6-32.6,14.5-33.4,35.9c-1.1,34.2-1.6,68.6-0.1,102.8
	c0.7,16.9-5.2,20.2-21.2,19.8c-42.9-0.9-42.9-0.3-42.9-41.1c0-51.4,0.4-102.8-0.3-154.2c-0.1-12.2,2.5-17.6,16.2-16
	c9,1.2,18.5,1.2,27.4,0c16.3-2.1,23.8,3.2,19.7,22.8c15.2-11.5,27.1-22.6,43.9-26.8c50.4-12.4,94.7,16.3,97.1,66.5
	c2.2,45.8,0.6,91.8,1,137.8c0.1,7.4-1.4,12.1-10.3,10.9c-0.7-0.1-1.4,0-2.1,0c-53.5,3.1-53.1,3.1-53.7-49.2
	c-0.3-23.8,2.6-47.8-1.9-71.6C332.6,253.9,334.1,250,335.4,246.1z"/>
<path class="st0" d="M157.6,274.2c0,28.8-0.5,57.6,0.3,86.4c0.4,12.4-1.8,17.8-16.8,17.8c-50.3-0.1-50.3,0.6-50.3-48.8
	c0-48,0.5-96-0.4-144.1c-0.3-13.6,2.3-19,18.1-18.9c49.2,0.3,49.2-0.4,49.2,47.8C157.6,234.4,157.6,254.3,157.6,274.2z"/>
<path class="st0" d="M162.6,97.8c-0.3,21.7-16.4,37.6-38.7,37.6c-23,0.1-39.6-16.7-38.9-39.3c0.6-21.6,17.4-37.1,39.7-36.6
	C146.9,60,162.9,76.3,162.6,97.8z"/>
</svg>
