<svg xmlns="http://www.w3.org/2000/svg" viewBox="0 0 1000 1000"><defs><style>.a{fill:#c69c6d;}.b{fill:#333;}</style></defs><ellipse class="a" cx="613.89" cy="393.83" rx="129.84" ry="125.2"/><path class="a" d="M389.38,404.66c-16.36-24.12-34.24-32.35-65.84-46.3-77.43-34.15-135.7-21.29-160.5-13.61-25.26,7.81-35.7,16.4-43.22,27.23-19.15,27.61-19.91,70.71-12.34,100.76,16.23,64.52,74.61,83.9,84.36,87.14,29,9.62,35.85-1.29,121.41-16.34,71.39-12.56,89.14-8.93,98.77-29.95C425.91,483.23,408.5,432.83,389.38,404.66Z"/><path class="b" d="M244.51,151.4C257.92,134.86,271,118,285.32,102.25s30-30.16,48.07-41.34a145.84,145.84,0,0,1,30.92-14.7,139.65,139.65,0,0,1,36.4-6.79c24.5-1.3,48.83,3.49,72.13,10.71,23.89,7.4,46.88,17.31,69.9,27l8.3,3.48c1.78.74,2.55-2.16.8-2.9C528.55,68,505.43,57.77,481.47,49.76,458.12,42,433.73,36.22,409,36.2a143.9,143.9,0,0,0-69.9,17.9C320.28,64.47,303.78,78.49,289,94S260.85,126.33,247.43,143l-5,6.24c-1.21,1.49.9,3.62,2.12,2.12Z"/><path class="b" d="M552,81.91Q582.16,95.82,612,110.47c19.56,9.6,39.14,19.26,58.34,29.57,8.54,4.59,16.95,9.69,23.67,16.77,6.45,6.8,11.12,15.05,14.86,23.59,4,9,7,18.48,10,27.85q5.1,15.62,9.77,31.37,9.38,31.61,17,63.71c.64,2.69,1.27,5.37,1.89,8.06.43,1.88,3.33,1.09,2.89-.8Q743,278.1,733.69,246.06q-4.63-16-9.72-31.9c-3.13-9.77-6.22-19.59-10-29.15-3.4-8.69-7.46-17.23-13.13-24.7-5.92-7.79-13.47-13.81-21.83-18.81-9-5.4-18.55-10-27.91-14.79q-14.82-7.56-29.72-14.94-30-14.86-60.42-29c-2.51-1.16-5-2.33-7.55-3.48-1.74-.81-3.27,1.78-1.51,2.59Z"/><path class="b" d="M752.64,316.46c5.11-6.94,10.87-14.88,19.3-18,6.41-2.36,15.41-1.56,19.42,4.66,2.79,4.32,2.41,10,2.58,14.94l.55,15.91,1.13,32.65q1.13,32.66,2.26,65.31c.68,19.68,2.44,40.22-3.22,59.38-2.69,9.1-7.18,17.3-15.13,22.8-6.44,4.45-15.15,6.86-21.62,1.16a1.52,1.52,0,0,0-2.51.66c-9,34.76-38.81,61.87-73.15,70.82a94.89,94.89,0,0,1-26.2,3.11,85.63,85.63,0,0,1-13.56-1.39c-5.25-1-10.63-2.47-14.75-6-3.81-3.3-6.41-7.68-9.48-11.61a49.8,49.8,0,0,0-8.73-8.68c-6.31-4.91-13.49-8.5-20.74-11.79-15.67-7.09-34.43-13.3-42.83-29.64l-1.3,2.26c40.08,2,83.43,3.51,120.44-14.58a108,108,0,0,0,25-16.81c8.26-7.47,15.25-16.24,21.55-25.39,12.52-18.23,23.45-38.09,29.76-59.37,5.93-20,7.45-41.88-.83-61.43-7.08-16.73-20.44-29.47-36.19-38.12-16.39-9-34.71-14-52.93-17.78-10.28-2.11-20.64-3.82-31-5.44-12.58-2-25.26-3.61-38-3.82-21.3-.34-43.27,3.66-61.27,15.62a69.93,69.93,0,0,0-21,21.73c-5.75,9.39-9.52,19.8-14.05,29.8a116.71,116.71,0,0,1-7.54,14.24h2.59C472,346.12,473,327.13,480,311c7.57-17.66,21.51-30.87,38.29-39.82,18.08-9.64,38.36-14.35,58.42-17.75,20.52-3.48,42.05-6.45,62.7-2.3a78.11,78.11,0,0,1,30.86,13.82c9,6.49,17.5,13.83,28.23,17.23a1.51,1.51,0,0,0,1.46-2.51c-14.36-12.38-29-24.87-45.93-33.67A90.37,90.37,0,0,0,596,236a220.09,220.09,0,0,0-32.14,7.4c-10.86,3.19-21.66,6.56-32.46,9.94s-21.49,6.79-32.19,10.32c-8.7,2.88-17.63,6.15-24.5,12.44-14.74,13.48-14.07,35.64-12.85,53.92l2.26-1.3c-9.56-6.5-21.44-8.41-32.78-7.07-12.19,1.45-23.49,6.51-33.91,12.8-6.33,3.82-12.38,8.07-18.42,12.33-1.57,1.11-.07,3.71,1.51,2.59,12.72-9,25.81-18.26,40.93-22.67,13.63-4,29.11-3.57,41.16,4.61a1.5,1.5,0,0,0,2.25-1.29c-1.06-16-2.13-35.12,8.66-48.3,5.84-7.14,14.35-11,22.86-13.94,10-3.49,20.15-6.6,30.25-9.79q15.69-5,31.44-9.73a307.5,307.5,0,0,1,30.58-8,108.12,108.12,0,0,1,31.49-1.9A86.36,86.36,0,0,1,647.21,246c18.91,8.65,35,22.31,50.58,35.77l1.46-2.51c-10-3.17-18.11-10-26.42-16.13-8.54-6.27-17.63-11.14-27.93-13.82-20.75-5.41-42.68-3-63.56.31-38.75,6.14-83.19,17.89-102.19,56-8.93,17.92-11.06,39.78-.63,57.56a1.51,1.51,0,0,0,2.59,0c11.32-17.85,15.32-39.94,30.37-55.44,14.11-14.51,34.35-21.83,54.17-23.81,24.08-2.39,48.34,1.89,72,6,18,3.16,36,7.06,52.9,14.06,16,6.6,31.09,16.41,40.91,30.91,11.65,17.2,13.92,38.23,10.16,58.31-3.92,20.9-13.22,40.55-24.25,58.58C706,470.39,692.8,488.16,674.12,500c-33.84,21.38-76.27,22.14-115,20.69-4.82-.18-9.64-.41-14.47-.65a1.51,1.51,0,0,0-1.29,2.25c7.67,14.93,23.67,21.8,38.24,28.21,7.63,3.35,15.33,6.73,22.3,11.35a52.39,52.39,0,0,1,9.6,8c3.5,3.79,6.1,8.31,9.53,12.16,6.91,7.76,17.33,9.67,27.23,10.55A95.32,95.32,0,0,0,677.13,591a108.61,108.61,0,0,0,48.74-23.73c15.54-13.15,27.32-30.75,32.42-50.54l-2.5.66c12.9,11.37,30.75-2,37.34-14,4.68-8.58,6.67-18.74,7.67-28.36,1.13-10.72.82-21.52.45-32.27Q800,407,798.78,371.26l-1.23-35.59-.62-18c-.18-5.05,0-10.52-2.44-15.12-4-7.64-14-9.59-21.8-7.45-10,2.77-16.76,11.88-22.64,19.85-1.15,1.55,1.45,3.05,2.59,1.51Z"/><path class="b" d="M371.58,357.78c18.33,18.91,27.88,44.89,28.94,71,1.1,26.87-7,53-21.43,75.6-14.68,23-35.37,42.14-58.72,56.13-13,7.79-27.21,14-42.27,16.33a75.89,75.89,0,0,1-22.62.15,101.08,101.08,0,0,1-22.87-6.44,213,213,0,0,1-37.89-20.22,201.22,201.22,0,0,1-31.59-25.58c-18.78-18.77-33.55-42-39.65-68-5.86-25-4.14-52.41,7.16-75.69a94.68,94.68,0,0,1,25-31.54c11.08-9.19,23.89-16.35,37.07-22a194.19,194.19,0,0,1,159.73,4.18,181.53,181.53,0,0,1,17.32,9.74,1.52,1.52,0,0,0,2.26-1.29l1.4-16.86c.39-4.7,1.29-9.67.72-14.38-.5-4.11-2.68-7.74-6.91-8.81-4.51-1.15-9.49.33-14,.72-21.73,1.88-43.22-3-64.58-6.24A223.92,223.92,0,0,0,230.83,293a218.69,218.69,0,0,0-54.52,13.22A213,213,0,0,0,127,332.91c-1.89,1.37-3.75,2.79-5.59,4.23-1.52,1.18.61,3.29,2.12,2.12a209.36,209.36,0,0,1,47.14-27.62,216.51,216.51,0,0,1,52.55-14.71,209.39,209.39,0,0,1,55-.82c20.89,2.44,41.48,7.62,62.59,8a114.1,114.1,0,0,0,15.68-.72c3.88-.46,9.63-2.18,12.78,1,2.82,2.86,2.1,7.84,1.8,11.45l-1.33,16-.68,8.15,2.26-1.3a191.12,191.12,0,0,0-78.87-28,197.45,197.45,0,0,0-83.08,7.31,180.76,180.76,0,0,0-38.78,17.28c-12.6,7.53-24.22,16.88-33.09,28.65-16,21.24-22.07,48.78-19.83,75a127.2,127.2,0,0,0,9.49,38.58,148.91,148.91,0,0,0,21.13,35c17.28,21.59,39.83,38.71,64.16,51.64,14,7.43,28.84,14,44.69,15.89,15.39,1.86,30.92-1.33,45.14-7.2a167.75,167.75,0,0,0,38.22-22.65,183,183,0,0,0,29.75-28.74c17.28-21.1,29.52-46.52,32.6-73.79,3-26.56-2.48-54.57-17.15-77.12a99.81,99.81,0,0,0-12-15c-1.34-1.39-3.46.74-2.12,2.12Z"/><path class="b" d="M383.42,359.69a4.27,4.27,0,0,1,1.36-2.44,4.63,4.63,0,0,0,1.07-2.83l-.74,1.29c4.18-3,9.74-3.87,13.71,0a8.45,8.45,0,0,1,2.57,5.3c.24,2.59.79,5.18,1.2,7.75,1.69,10.69,3.15,21.41,4.11,32.19,1.88,21,2,42.32-2.21,63A137.58,137.58,0,0,1,395,493.75a127.45,127.45,0,0,1-7.55,14.12q-2.16,3.5-4.55,6.86c-1.56,2.19-3.39,4.23-4.84,6.49-6.95,10.8-12.24,31.49,3.49,37.53a39.15,39.15,0,0,0,6.34,1.47q4.09.84,8.16,1.84c5.17,1.27,10.3,2.76,15.33,4.52a127.92,127.92,0,0,1,28.1,13.91q3.45,2.28,6.76,4.76a1.46,1.46,0,0,0,1.51,0c7-3.55,11.72-9.41,16-15.77a109.21,109.21,0,0,1,6.43-9,45.56,45.56,0,0,1,9.52-8.38c7.86-5.41,17-10.45,26.77-10.71a36.89,36.89,0,0,1,16,3.37c11.22,5,20.25,14.09,28,23.47,8.7,10.59,16,22.28,23,34.07,6,10.16,11.53,20.58,17.78,30.58q.9,1.44,1.83,2.88l2.59-1.52c-2.84-4-8.28-4.61-12-7.48L583,629.3a7.13,7.13,0,0,1,6,1.39,26.19,26.19,0,0,1,4.35,5.57l1.69-2.2c-17.9-3.75-35.56-8.56-53.18-13.46L528,616.75a99,99,0,0,0-13.38-3.08c-8.56-1.11-18-.63-25.93,3-6.69,3.05-12.56,7.56-19,11a32.12,32.12,0,0,1-9.37,3.49c-3.68.65-7.3-.16-11-.5a109.85,109.85,0,0,0-45,5.11,111.88,111.88,0,0,0-42.62,26.45,1.5,1.5,0,0,0,2.12,2.12A108.85,108.85,0,0,1,401.29,640a106.87,106.87,0,0,1,44-6.67c3.73.21,7.46,1,11.18,1.07a24.88,24.88,0,0,0,9.52-1.79c6.6-2.53,12.34-6.78,18.41-10.32a40.6,40.6,0,0,1,9.9-4.57,51.8,51.8,0,0,1,13.81-1.53c9.36.15,18.28,3.22,27.22,5.71,19.53,5.43,39.06,10.9,58.91,15.05,1.18.25,2.47-1,1.69-2.2-1.63-2.44-3.25-5.09-5.66-6.85s-5.25-2-8.12-1.5a1.51,1.51,0,0,0-.67,2.51,33.15,33.15,0,0,0,5.83,3.23c1.84.91,4.44,1.9,5.67,3.65,1.1,1.55,3.67.12,2.59-1.52-6.36-9.7-11.79-20-17.61-30-7-12.05-14.34-24-22.93-35-7.79-10-16.89-19.68-28.21-25.67a43.76,43.76,0,0,0-16-5c-8.87-.89-17.45,2-25.14,6.28a85.28,85.28,0,0,0-12.13,8,45.25,45.25,0,0,0-8,8.66c-4.48,6.09-8.1,12.93-14.08,17.75a30.59,30.59,0,0,1-5.28,3.35h1.51A132,132,0,0,0,419,566.28,149.7,149.7,0,0,0,386.67,557c-3.7-.6-7.31-1.91-9.67-5a15.52,15.52,0,0,1-2.81-9.34c-.09-8.48,3.76-16.43,8.77-23,13.49-17.71,21.86-38.67,25.48-60.57s2.89-44.34.43-66.37c-1.23-11-2.76-22.05-4.63-33a12.08,12.08,0,0,0-8.47-9.15,12.59,12.59,0,0,0-7.22,0,15.85,15.85,0,0,0-4,1.85,4.4,4.4,0,0,0-1.51,1.22c-.24.42-.14.91-.33,1.33a16.3,16.3,0,0,1-1.39,1.74,5.93,5.93,0,0,0-.92,3c-.16,1.92,2.84,1.91,3,0Z"/><path class="b" d="M362.54,660.94l-12.42,7.13a1.51,1.51,0,0,0,1.52,2.6l12.41-7.14a1.5,1.5,0,0,0-1.51-2.59Z"/><path class="b" d="M350.79,668.8l-3.33,2.51c-.94.71-1,2.43.36,2.74,16.73,3.78,29,16.73,41.25,27.79,6.28,5.68,12.83,11.23,20.27,15.34,9.14,5.06,19.21,7,29.58,7.38a187.52,187.52,0,0,0,35.73-2.34c6-1,11.88-2.21,17.74-3.69,5.21-1.32,10.47-2.73,15.87-3a22.59,22.59,0,0,1,14.79,4c2.22,1.59,4.26,3.41,6.58,4.86a37.28,37.28,0,0,0,6.52,3.22c9.4,3.65,19.65,4,29.3,6.74a41.41,41.41,0,0,1,22,14.92,43.4,43.4,0,0,1,8.86,24.54,38,38,0,0,1-.35,6.49,1.56,1.56,0,0,0,1,1.85,1.51,1.51,0,0,0,1.84-1c2.58-18.07-6.93-37-23-45.79-8.88-4.86-19.09-5.73-28.84-7.75a50.8,50.8,0,0,1-14.2-4.76c-4.73-2.59-8.4-6.72-13.48-8.72-10.26-4-21.69.15-31.82,2.53A189.88,189.88,0,0,1,451,721.52c-11.46.41-23.4.27-34.19-4.06-7.9-3.17-14.84-8.36-21.25-13.87-12.85-11-24.63-24.6-40.9-30.64a47.17,47.17,0,0,0-6.05-1.79l.35,2.74,3.34-2.51c1.52-1.15,0-3.76-1.52-2.59Z"/><path class="b" d="M596.51,779.36c-1.36,11.18-2.93,22.62-7.28,33.1a43.47,43.47,0,0,1-24.12,24.32c-11.81,4.85-25,7-37.5,9.18A280.2,280.2,0,0,1,485,850.44a177.68,177.68,0,0,1-42.29-3.84,175.43,175.43,0,0,1-37.77-13.39A366.42,366.42,0,0,1,370,813.64c-10.86-6.77-21.88-13.49-32.2-21.07a105.22,105.22,0,0,1-14.17-12.24,68.64,68.64,0,0,1-6-7.18c-2-2.74-4.16-5.84-4.3-9.33-.3-7.21,7-11.65,13.37-12.06A31.26,31.26,0,0,1,343,755.69c16.51,8.77,25.87,29.69,21.57,47.87-5.28,22.38-29.44,33.84-50.56,35.54-14.51,1.17-29-1.14-43.2-3.85-14.06-2.68-28.11-5.39-42.26-7.6-57.08-8.91-114.91-12.32-172.66-12.22q-10.45,0-20.92.18c-1.93,0-1.93,3,0,3,62.23-1,124.65,1.78,186.26,10.94,15.43,2.29,30.76,5.1,46.07,8.07,15,2.91,30.29,5.62,45.62,4.56,21.56-1.49,45.63-12.08,53.37-33.84,6.49-18.23-1.1-40.11-16.26-51.69-8.18-6.24-20.63-10.69-30.57-6.2-4.65,2.11-8.49,6.57-9,11.76-.64,6,3.59,11.32,7.13,15.71,8.22,10.21,19.11,17.86,30,25,11.89,7.75,23.86,15.43,36.16,22.51,24.72,14.22,50.86,24.81,79.48,27.37C492.81,855.39,523,851,551.79,844c11.88-2.86,23.82-7.17,32-16.72,7.4-8.67,11-19.78,13.18-30.79,1.11-5.68,1.86-11.42,2.56-17.16.23-1.91-2.77-1.9-3,0Z"/><path class="b" d="M167.34,286.71C160,266,169,244.47,180.6,227.34c6-8.89,12.78-17.31,19.59-25.61s14.08-16.68,21.47-24.72q12.59-13.68,26-26.53c1.39-1.34-.73-3.45-2.12-2.12a580.69,580.69,0,0,0-45.87,49.28c-7,8.43-13.87,17-20.15,26-6.17,8.81-11.65,18.25-14.86,28.56-3.54,11.41-4.28,24-.23,35.34.64,1.8,3.54,1,2.89-.8Z"/><path class="b" d="M752.53,606.77c-7.27,29.7-19.7,57.83-35,84.23-7.71,13.29-16.14,26.16-25,38.69-8.77,12.36-18.16,24.22-27.39,36.24C655,779.06,645.44,793.17,642,809.63c-.21,1,.7,2.3,1.84,1.84l6.58-2.62a35.12,35.12,0,0,0,8.52-5.33c7.33-5.8,13-13.39,17.7-21.43,4.8-8.3,8.56-17.14,12.21-26q1.38-3.35,2.74-6.68a44.34,44.34,0,0,1,3-6.72c1.56-2.48,4.49-2.33,6.55-.5s2.62,4.53,3.1,7c5,24.9,7.08,50.62,7.63,76,.13,6.12.47,12.4,0,18.52a9.52,9.52,0,0,1-3.75,7.21,71.41,71.41,0,0,1-6.86,4.54,193.92,193.92,0,0,1-30.36,15.29,196.76,196.76,0,0,1-66.36,13.87c-2.81.09-5.62.11-8.44.08l1.3,2.26,4.26-8.13-1.7.69a511.6,511.6,0,0,0,88.6,13q22.65,1.32,45.36.63c13.82-.43,27.54-1.76,41.32-2.79,21.72-1.61,47.85-1.94,63,16.57,7.35,9,11.89,20.89,23.08,26,11.71,5.37,25.56,3.14,38,2.64,25.16-1,52.19-.91,75,11.13a79.18,79.18,0,0,1,8,4.85c1.6,1.1,3.1-1.5,1.52-2.59-21.21-14.58-47.65-17-72.7-16.72-6.5.09-13,.36-19.5.68s-13.19.81-19.71-.08a28.74,28.74,0,0,1-17-8.08c-4.14-4.21-7.11-9.37-10.4-14.23a52.32,52.32,0,0,0-11.29-12.63A48.33,48.33,0,0,0,819,890.52c-10.78-3.64-22.45-4.1-33.72-3.71-12.85.45-25.63,2.06-38.46,2.79q-22.65,1.27-45.36.54a506.82,506.82,0,0,1-89.92-11.06q-5.45-1.19-10.88-2.47a1.52,1.52,0,0,0-1.69.69l-4.26,8.12a1.51,1.51,0,0,0,1.29,2.26A199.35,199.35,0,0,0,697.5,861.14q3.79-2.19,7.5-4.55a34.46,34.46,0,0,0,6.59-4.85c4.06-4.24,3.34-10.5,3.34-15.92a493.19,493.19,0,0,0-6.43-79.2c-.84-5.17-1.06-11.85-4.74-16-3-3.37-8.49-4.06-11.35-.18-1.41,1.92-2.17,4.36-3.07,6.55s-1.9,4.62-2.85,6.93c-2,4.81-4,9.61-6.17,14.34-4.17,9-9,17.94-15.55,25.47a57.15,57.15,0,0,1-11,9.85,41.56,41.56,0,0,1-8.11,3.92l-2.59,1,1.84,1.84c3.11-14.78,11.3-27.63,20.23-39.56,9.07-12.1,18.6-23.82,27.44-36.1,17.83-24.76,34-50.91,46.3-78.88a292.26,292.26,0,0,0,16.58-48.32c.46-1.87-2.43-2.67-2.89-.79Z"/><path class="b" d="M754.41,609.71v-32a1.5,1.5,0,0,0-3,0v32a1.5,1.5,0,0,0,3,0Z"/></svg>