<svg xmlns="http://www.w3.org/2000/svg" viewBox="0 0 1366 768"><defs><style>.a{fill:#c69c6d;}.b{fill:#333;}</style></defs><ellipse class="a" cx="487.56" cy="284.4" rx="97.24" ry="93.77"/><path class="a" d="M319.41,292.51c-12.25-18.07-25.64-24.24-49.31-34.68-58-25.58-101.63-15.94-120.21-10.19C131,253.49,123.16,259.92,117.53,268c-14.35,20.68-14.91,53-9.25,75.46,12.16,48.32,55.88,62.84,63.19,65.27,21.7,7.2,26.85-1,90.92-12.24,53.47-9.41,66.77-6.69,74-22.43C346.77,351.35,333.73,313.61,319.41,292.51Z"/><path class="b" d="M210.91,102.83c10-12.35,19.74-24.94,30.45-36.69s22.48-22.64,36-31a109.46,109.46,0,0,1,23.17-11A104.58,104.58,0,0,1,327.88,19C346.25,18,364.51,21.59,382,27c17.83,5.52,35,12.92,52.18,20.15l6.31,2.65c1.34.56,1.92-1.62.6-2.17-17.47-7.29-34.82-15-52.8-21-17.44-5.82-35.65-10.1-54.13-10.12A107.79,107.79,0,0,0,281.76,30c-14.05,7.74-26.37,18.2-37.44,29.73s-21.17,24.38-31.28,37l-3.72,4.6c-.9,1.11.68,2.72,1.59,1.59Z"/><path class="b" d="M441.16,50.78q22.53,10.36,44.78,21.29c14.64,7.18,29.29,14.43,43.67,22.13,6.42,3.43,12.75,7.24,17.82,12.53a60.42,60.42,0,0,1,11.23,17.72c3,6.73,5.2,13.76,7.48,20.74Q570,157,573.53,168.92q7,23.72,12.76,47.8c.47,2,.93,3.95,1.38,5.93.33,1.41,2.5.82,2.17-.59q-5.61-24.34-12.56-48.36-3.49-12-7.32-24c-2.35-7.33-4.67-14.71-7.49-21.88a75.62,75.62,0,0,0-9.81-18.39,56.22,56.22,0,0,0-16.25-14c-6.7-4-13.78-7.44-20.73-11q-11.2-5.73-22.47-11.3Q470.77,62,448.06,51.5l-5.76-2.66c-1.31-.6-2.45,1.34-1.14,1.94Z"/><path class="b" d="M591.47,226.45c3.83-5.19,8.15-11.15,14.46-13.46,4.8-1.76,11.54-1.17,14.54,3.49,2.09,3.24,1.81,7.5,1.93,11.19l.42,11.91.84,24.46q.86,24.45,1.69,48.91c.51,14.74,1.83,30.13-2.41,44.48-2,6.81-5.37,12.95-11.33,17.07-4.82,3.33-11.34,5.14-16.19.87a1.13,1.13,0,0,0-1.88.49c-6.72,26-29.07,46.34-54.78,53a71,71,0,0,1-19.63,2.33,64.09,64.09,0,0,1-10.15-1c-3.94-.73-8-1.85-11.05-4.52-2.85-2.47-4.8-5.76-7.1-8.7a38,38,0,0,0-6.54-6.5,75.63,75.63,0,0,0-15.53-8.83c-11.74-5.31-25.79-10-32.08-22.2l-1,1.7c30,1.53,62.48,2.62,90.2-10.92a80.6,80.6,0,0,0,18.69-12.59,107.08,107.08,0,0,0,16.14-19c9.38-13.65,17.57-28.53,22.3-44.46,4.43-15,5.57-31.37-.62-46-5.31-12.54-15.32-22.07-27.11-28.56-12.28-6.74-26-10.51-39.64-13.31-7.7-1.58-15.46-2.86-23.23-4.08A205.86,205.86,0,0,0,464,199.34c-16-.26-32.41,2.74-45.89,11.7a52.3,52.3,0,0,0-15.76,16.27c-4.31,7-7.13,14.83-10.52,22.31a87,87,0,0,1-5.65,10.67h1.95c-6.83-11.63-6.06-25.85-.87-38,5.67-13.23,16.1-23.12,28.67-29.82,13.54-7.23,28.73-10.75,43.75-13.29,15.37-2.61,31.5-4.83,47-1.73a58.57,58.57,0,0,1,23.11,10.35c6.71,4.86,13.11,10.36,21.15,12.9a1.13,1.13,0,0,0,1.09-1.88c-10.75-9.27-21.74-18.62-34.4-25.21a67.59,67.59,0,0,0-43.46-7.45,165.56,165.56,0,0,0-24.07,5.54c-8.13,2.39-16.23,4.91-24.31,7.45s-16.1,5.08-24.11,7.73c-6.52,2.15-13.2,4.61-18.35,9.31-11,10.1-10.54,26.7-9.62,40.39l1.69-1c-7.16-4.87-16.05-6.3-24.55-5.3-9.13,1.08-17.59,4.88-25.4,9.59-4.74,2.86-9.27,6-13.8,9.23-1.17.83-.05,2.78,1.14,2,9.52-6.72,19.33-13.69,30.65-17,10.21-3,21.81-2.68,30.83,3.45a1.13,1.13,0,0,0,1.69-1c-.8-12-1.6-26.3,6.48-36.18,4.37-5.34,10.75-8.21,17.12-10.43,7.49-2.62,15.1-4.95,22.66-7.34q11.74-3.71,23.54-7.28a229.63,229.63,0,0,1,22.91-6A80.83,80.83,0,0,1,492.2,168a64.78,64.78,0,0,1,20.31,5.7c14.16,6.48,26.18,16.71,37.88,26.79l1.1-1.88c-7.49-2.37-13.56-7.5-19.79-12.08a61.34,61.34,0,0,0-20.92-10.35c-15.54-4-32-2.24-47.6.24-29,4.59-62.31,13.39-76.54,41.93-6.69,13.43-8.28,29.8-.47,43.12a1.15,1.15,0,0,0,1.95,0c8.47-13.37,11.47-29.92,22.74-41.52,10.56-10.87,25.73-16.36,40.57-17.83,18-1.8,36.2,1.41,53.91,4.52,13.45,2.36,27,5.29,39.62,10.52,11.95,4.95,23.28,12.3,30.64,23.16,8.72,12.88,10.42,28.63,7.6,43.67-2.93,15.64-9.9,30.37-18.16,43.87-8.52,13.92-18.39,27.22-32.38,36.06-25.34,16-57.12,16.58-86.11,15.5-3.62-.14-7.23-.31-10.84-.49a1.13,1.13,0,0,0-1,1.69c5.75,11.18,17.73,16.32,28.64,21.12,5.72,2.51,11.48,5,16.7,8.5a39.53,39.53,0,0,1,7.19,6c2.62,2.84,4.57,6.22,7.14,9.1,5.18,5.82,13,7.25,20.39,7.9a71.49,71.49,0,0,0,20.12-1.14,81.36,81.36,0,0,0,36.5-17.77c11.64-9.86,20.47-23,24.29-37.86l-1.88.5c9.67,8.51,23-1.47,28-10.52,3.5-6.43,5-14,5.75-21.24a173.94,173.94,0,0,0,.33-24.16Q627,294.27,626,267.49l-.92-26.65-.47-13.49c-.13-3.78,0-7.87-1.82-11.32-3-5.72-10.51-7.18-16.33-5.58-7.52,2.08-12.56,8.9-17,14.87-.86,1.16,1.09,2.29,1.94,1.13Z"/><path class="b" d="M120.33,243.52a160.11,160.11,0,0,1,74.44-31.66,156.7,156.7,0,0,1,41.16-.68c15.49,1.79,30.74,5.62,46.38,6a85.2,85.2,0,0,0,13.07-.59c3.45-.44,8.48-1.64,10,2.6,1.2,3.29.23,7.53,0,10.9l-1.17,14,1.7-1A143.31,143.31,0,0,0,247,222.25a147.76,147.76,0,0,0-62.58,5.5c-20.28,6.39-41,17.34-53.91,34.69-11.86,15.93-16.29,36.5-14.57,56.08,1.78,20.23,10.2,39,22.81,54.75,13,16.26,29.93,29.13,48.23,38.85,10.4,5.52,21.44,10.37,33.21,11.83,11.53,1.43,23.18-.93,33.85-5.31,19.7-8.09,37.6-22.12,51-38.55,12.93-15.79,22.1-34.8,24.41-55.21,2.24-19.82-1.81-40.72-12.69-57.58a74.93,74.93,0,0,0-9.13-11.49l-1.09,1.88,6.94,2.22a1.15,1.15,0,0,0,1.43-1.09c.16-1.52,1.68-2.29,1.82-3.94l-.56,1c3.17-2.25,7.25-2.9,10.26,0,2.35,2.26,2.25,6.1,2.73,9.12,1.14,7.15,2.14,14.32,2.87,21.52,1.44,14.19,1.89,28.61,0,42.77a103.74,103.74,0,0,1-13.67,39.87c-3.36,5.52-7.9,10.28-10.37,16.3-1.81,4.41-2.9,9.51-1.75,14.23a11.83,11.83,0,0,0,8.86,8.76c3.54.89,7.18,1.44,10.74,2.35,3.74,1,7.44,2.08,11.07,3.39a96,96,0,0,1,10.38,4.47,26.67,26.67,0,0,0,8.49,2.84,23.28,23.28,0,0,0,17.07-4.35c2.57-1.93,4.3-4.36,6.25-6.87a36.92,36.92,0,0,1,8.88-7.93c6.35-4.23,13.65-7.85,21.48-7.33,9.61.64,17.9,6.68,24.47,13.29,14.92,15,24.18,34.47,34.92,52.41,1,1.66,2,3.31,3.06,4.93.79,1.2,2.74.08,1.95-1.14-5.34-8.15-9.85-16.83-14.79-25.22-5.77-9.79-11.91-19.48-19.38-28.08-6.46-7.43-14.35-14.56-24-17.35a28.21,28.21,0,0,0-17.31.57,50.9,50.9,0,0,0-10.73,5.46,40.52,40.52,0,0,0-9.09,7.51c-2.21,2.61-3.95,5.53-6.67,7.68a21,21,0,0,1-9.13,4.07,21.35,21.35,0,0,1-9.57-.47c-3.55-1-6.77-3-10.14-4.47a123.69,123.69,0,0,0-22.48-7c-2.94-.63-6.13-.83-8.65-2.65a9.42,9.42,0,0,1-3.5-5.49c-1.23-5.1.48-10.76,2.8-15.29,1.55-3,3.77-5.57,5.72-8.35a95.06,95.06,0,0,0,5.94-9.68c6.77-12.67,10.48-26.66,11.93-40.91,1.48-14.67.64-29.49-1.12-44.1-.87-7.28-2-14.55-3.12-21.78-1-6.41-8.47-8.88-13.8-6.11a5.82,5.82,0,0,0-2,1.36c-.29.45-.28,1-.57,1.43-.73,1.15-1.34,1.75-1.49,3.19l1.42-1.08-6.94-2.22a1.13,1.13,0,0,0-1.1,1.88c13.79,14.27,20.95,33.81,21.69,53.48.75,20.11-5.4,39.67-16.21,56.52-11,17.15-26.48,31.44-43.92,41.86-9.75,5.83-20.4,10.49-31.69,12.2-11.81,1.79-23.38-.45-34.35-4.89A157.77,157.77,0,0,1,150,382.49c-14.06-14-25.13-31.39-29.72-50.86-4.43-18.8-3.15-39.41,5.37-56.9,9.41-19.3,27.46-31.91,46.76-40.17a145.53,145.53,0,0,1,119.38,3.28,136.75,136.75,0,0,1,12.93,7.28,1.14,1.14,0,0,0,1.69-1l1.08-13c.29-3.45.94-7.08.49-10.54-.35-2.72-1.68-5.21-4.35-6.23-3.15-1.2-6.73-.17-9.94.16-16.61,1.73-33.07-2-49.4-4.5a168.6,168.6,0,0,0-43.16-1.27,163.51,163.51,0,0,0-41.22,9.91,161.15,161.15,0,0,0-41.2,23.23c-1.14.89.47,2.47,1.6,1.59Z"/><path class="b" d="M473.45,464.31c-13.46-2.81-26.72-6.43-40-10.12-12.74-3.54-26.83-8.79-39.74-2.89-5,2.28-9.38,5.66-14.23,8.22a24.33,24.33,0,0,1-6.94,2.59c-2.73.49-5.41-.1-8.14-.35a82.18,82.18,0,0,0-33.82,3.8,83.85,83.85,0,0,0-31.95,19.82c-1,1,.56,2.61,1.6,1.59a81.41,81.41,0,0,1,27.85-18.12,79.93,79.93,0,0,1,33.05-5.09c2.88.16,5.77.76,8.66.81a18.59,18.59,0,0,0,7-1.34c4.86-1.87,9.1-5,13.56-7.6a31.73,31.73,0,0,1,7.43-3.5,38.3,38.3,0,0,1,10.61-1.2c7,.13,13.63,2.41,20.29,4.27,14.64,4.07,29.28,8.17,44.15,11.28,1.42.3,2-1.87.6-2.17Z"/><path class="b" d="M299.31,484.44l-9.3,5.35a1.13,1.13,0,0,0,1.14,1.94l9.29-5.34a1.13,1.13,0,0,0-1.13-1.95Z"/><path class="b" d="M290.51,490.33l-2.5,1.88a1.15,1.15,0,0,0,.27,2.06c12.55,2.84,21.73,12.54,30.93,20.85,4.72,4.25,9.63,8.41,15.21,11.49,6.82,3.75,14.32,5.21,22.05,5.48a139,139,0,0,0,26.64-1.73c4.42-.69,8.8-1.61,13.14-2.7a66.06,66.06,0,0,1,11.82-2.31,17.08,17.08,0,0,1,11.21,2.82c1.73,1.21,3.3,2.63,5.08,3.76a28.13,28.13,0,0,0,4.82,2.4c7,2.75,14.59,3,21.78,5a31.16,31.16,0,0,1,16.7,11.13,32.47,32.47,0,0,1,6.73,18.39,28.68,28.68,0,0,1-.25,5c-.2,1.41,2,2,2.17.6a34.44,34.44,0,0,0-16.68-34c-6.57-3.78-14.19-4.52-21.49-6a40.71,40.71,0,0,1-10.77-3.41c-3.6-1.87-6.37-5-10.13-6.61-7.5-3.18-15.9-.34-23.37,1.47a142.11,142.11,0,0,1-27.38,3.85c-8.75.37-17.94.35-26.22-2.88-6-2.35-11.26-6.26-16.12-10.42-9.68-8.3-18.54-18.54-30.8-23.07a36.34,36.34,0,0,0-4.47-1.31l.27,2.06,2.5-1.89c1.14-.86,0-2.82-1.14-1.94Z"/><path class="b" d="M474.54,573.14c-1.29,10.62-2.81,22-8.78,31.15-6.87,10.55-18.85,13.76-30.47,16.28-26.08,5.66-53.65,8.77-79.84,2-24.71-6.39-46.73-20.89-67.8-34.8a112.18,112.18,0,0,1-14.54-11,59.94,59.94,0,0,1-5.49-5.78c-2.13-2.57-5-6-5.13-9.52-.22-7.19,8.12-9.6,13.82-8.78a26.89,26.89,0,0,1,13.18,6,34.26,34.26,0,0,1,12.07,24c.6,10.32-4.25,19.59-12.4,25.81-21.3,16.24-49.7,8-73.51,3.67C162.37,602.39,108,599.41,53.94,600.29q-31.18.5-62.36,1.05l-2.08,0a1.12,1.12,0,0,0,0,2.24l63.72-1.07c55.55-.93,111.38,2.16,166,12.52,23.92,4.54,52.31,11.28,72.91-6.18a31.88,31.88,0,0,0,11.67-25.65,36.73,36.73,0,0,0-11-24.62c-6.52-6.3-18.37-11.68-27-6.51-4.35,2.6-6.77,7.71-4.93,12.59,2,5.22,6.59,9.9,10.6,13.63,9.34,8.65,20.7,15.19,31.45,21.91,11.14,7,22.55,13.57,34.69,18.65a124.92,124.92,0,0,0,39.88,9.43c14.08,1,28.24-.23,42.15-2.49,6.81-1.1,13.6-2.44,20.32-4,5.77-1.35,11.58-3,16.74-6,9.84-5.67,14.87-15.82,17.4-26.52a147.4,147.4,0,0,0,2.64-16.18c.17-1.44-2.08-1.43-2.25,0Z"/><path class="b" d="M151.2,204.17c-5.48-15.45,1.18-31.53,9.85-44.35,4.53-6.7,9.62-13,14.74-19.28S186.4,128,192,121.91q9.38-10.18,19.4-19.77c1-1-.55-2.59-1.6-1.59a437.91,437.91,0,0,0-34.54,37.14c-5.19,6.28-10.32,12.66-15,19.34s-8.63,13.57-11,21.23c-2.67,8.56-3.22,18-.19,26.51.48,1.35,2.66.77,2.17-.6Z"/><path class="b" d="M591.39,443.87C586,466.12,576.63,487.19,565.17,507c-5.78,9.95-12.09,19.59-18.74,29s-13.61,18.15-20.52,27.15c-7.55,9.83-14.73,20.4-17.32,32.72-.15.75.53,1.73,1.39,1.39l4.92-2a26.28,26.28,0,0,0,6.38-4,55.8,55.8,0,0,0,13.26-16.05,161.9,161.9,0,0,0,9.14-19.46l2.06-5a32.24,32.24,0,0,1,2.21-5c1.17-1.85,3.36-1.74,4.91-.37s2,3.39,2.32,5.23c3.71,18.65,5.3,37.91,5.71,56.9.1,4.59.35,9.3,0,13.88a7.12,7.12,0,0,1-2.81,5.39,50.07,50.07,0,0,1-5.13,3.4,145.86,145.86,0,0,1-22.74,11.46A147.39,147.39,0,0,1,480.51,652c-2.11.07-4.21.09-6.32.06l1,1.7,3.19-6.09-1.27.52a383.13,383.13,0,0,0,66.36,9.76c11.3.67,22.64.82,34,.47,10.36-.32,20.63-1.32,31-2.08,16.26-1.21,35.83-1.46,47.14,12.41,5.5,6.75,8.9,15.64,17.29,19.48,8.77,4,19.14,2.35,28.45,2,18.84-.75,39.09-.68,56.2,8.34a60.78,60.78,0,0,1,6,3.63c1.2.82,2.32-1.13,1.14-1.94-15.89-10.93-35.69-12.77-54.45-12.52-4.87.06-9.74.26-14.6.5s-9.88.61-14.77-.06A21.51,21.51,0,0,1,668,682.06c-3.11-3.15-5.33-7-7.79-10.66a40,40,0,0,0-8.46-9.46,36.18,36.18,0,0,0-10.58-5.55c-8.07-2.73-16.81-3.08-25.25-2.78-9.63.33-19.2,1.54-28.81,2.09q-17,1-34,.4a378.73,378.73,0,0,1-67.34-8.28q-4.08-.89-8.15-1.85a1.15,1.15,0,0,0-1.27.51l-3.19,6.09a1.13,1.13,0,0,0,1,1.69,149.44,149.44,0,0,0,76-19.87c1.89-1.1,3.77-2.23,5.61-3.41a26,26,0,0,0,4.94-3.63c3-3.18,2.5-7.87,2.5-11.93a369.37,369.37,0,0,0-4.81-59.31c-.63-3.88-.8-8.88-3.55-12-2.25-2.52-6.37-3-8.51-.13a23.1,23.1,0,0,0-2.3,4.9l-2.13,5.19c-1.48,3.61-3,7.2-4.62,10.74-3.12,6.76-6.73,13.44-11.65,19.07a42.37,42.37,0,0,1-8.27,7.38,30.65,30.65,0,0,1-6.07,2.94l-1.94.78,1.38,1.38c2.33-11.07,8.46-20.69,15.16-29.63s13.92-17.84,20.54-27c13.36-18.55,25.45-38.13,34.68-59.08a220.55,220.55,0,0,0,12.42-36.19c.34-1.41-1.83-2-2.17-.6Z"/><path class="b" d="M592.8,446.08V422.14a1.13,1.13,0,0,0-2.25,0v23.94a1.13,1.13,0,0,0,2.25,0Z"/></svg>