<svg xmlns="http://www.w3.org/2000/svg" viewBox="0 0 1125 2139"><defs><style>.a{opacity:0.17;}.b{fill:#c69c6d;}.c{fill:#333;}</style></defs><g class="a"><ellipse class="b" cx="673.31" cy="859.48" rx="97.24" ry="93.77"/><path class="b" d="M505.16,867.59c-12.25-18.07-25.64-24.23-49.31-34.67-58-25.58-101.63-15.95-120.21-10.2-18.92,5.85-26.73,12.28-32.36,20.39-14.35,20.69-14.91,53-9.25,75.47,12.16,48.32,55.88,62.83,63.19,65.26,21.7,7.21,26.85-1,90.92-12.24,53.47-9.4,66.77-6.68,74-22.43C532.52,926.43,519.48,888.69,505.16,867.59Z"/><path class="c" d="M396.66,677.91c10-12.34,19.74-24.94,30.45-36.69s22.48-22.63,36-31a109.46,109.46,0,0,1,23.17-11A105,105,0,0,1,513.63,594c18.37-1,36.63,2.63,54.11,8.05,17.83,5.53,35,12.92,52.18,20.15l6.31,2.65c1.34.56,1.92-1.62.6-2.17-17.47-7.29-34.82-15-52.8-21-17.44-5.83-35.65-10.11-54.13-10.13A107.79,107.79,0,0,0,467.51,605c-14.05,7.74-26.37,18.2-37.44,29.73s-21.17,24.38-31.28,37l-3.72,4.6c-.9,1.12.68,2.72,1.59,1.59Z"/><path class="c" d="M626.91,625.87q22.53,10.35,44.78,21.28c14.64,7.19,29.29,14.43,43.67,22.13,6.42,3.43,12.75,7.24,17.82,12.53a60.42,60.42,0,0,1,11.23,17.72c3,6.73,5.2,13.77,7.48,20.74q3.86,11.82,7.39,23.74,7,23.72,12.76,47.79.71,3,1.38,5.94c.33,1.41,2.5.81,2.17-.6Q770,772.8,763,748.79q-3.49-12.06-7.32-24c-2.35-7.34-4.67-14.72-7.49-21.89a75.8,75.8,0,0,0-9.81-18.39,56.37,56.37,0,0,0-16.25-14c-6.7-4-13.78-7.43-20.73-11q-11.2-5.71-22.47-11.3-22.44-11.12-45.15-21.64l-5.76-2.67c-1.31-.6-2.45,1.34-1.14,2Z"/><path class="c" d="M777.22,801.53c3.83-5.19,8.15-11.14,14.46-13.46,4.8-1.76,11.54-1.16,14.54,3.49,2.09,3.24,1.81,7.5,1.93,11.19l.42,11.92.84,24.45q.86,24.46,1.69,48.92c.51,14.74,1.83,30.12-2.41,44.47-2,6.81-5.37,13-11.33,17.07-4.82,3.34-11.34,5.14-16.19.87a1.14,1.14,0,0,0-1.88.5c-6.72,26-29.07,46.33-54.78,53a71.39,71.39,0,0,1-19.63,2.32,64.08,64.08,0,0,1-10.15-1c-3.94-.73-8-1.86-11.05-4.53-2.85-2.47-4.8-5.75-7.1-8.7a37.54,37.54,0,0,0-6.54-6.49,75.63,75.63,0,0,0-15.53-8.83c-11.74-5.32-25.79-10-32.08-22.2l-1,1.69c30,1.53,62.48,2.63,90.2-10.92a80.6,80.6,0,0,0,18.69-12.59,107.08,107.08,0,0,0,16.14-19c9.38-13.64,17.57-28.52,22.3-44.46,4.43-15,5.57-31.36-.62-46-5.31-12.53-15.32-22.07-27.11-28.55-12.28-6.75-26-10.52-39.64-13.32-7.7-1.58-15.46-2.86-23.23-4.07a205.87,205.87,0,0,0-28.45-2.86c-16-.26-32.41,2.74-45.89,11.7a52.3,52.3,0,0,0-15.76,16.27c-4.31,7-7.13,14.83-10.52,22.32a87.7,87.7,0,0,1-5.65,10.67h2c-6.83-11.63-6.06-25.86-.87-38,5.67-13.23,16.1-23.12,28.67-29.83,13.54-7.22,28.73-10.74,43.75-13.29,15.37-2.61,31.5-4.83,47-1.73a58.71,58.71,0,0,1,23.11,10.35c6.71,4.86,13.11,10.36,21.15,12.91a1.13,1.13,0,0,0,1.09-1.88c-10.75-9.27-21.74-18.63-34.4-25.22a67.76,67.76,0,0,0-43.46-7.45,165.59,165.59,0,0,0-24.07,5.55c-8.13,2.39-16.23,4.91-24.31,7.44s-16.1,5.09-24.11,7.73c-6.52,2.16-13.2,4.61-18.35,9.32-11,10.09-10.54,26.69-9.62,40.38l1.69-1c-7.16-4.87-16.05-6.3-24.55-5.29-9.13,1.08-17.59,4.87-25.4,9.58-4.74,2.86-9.27,6.05-13.8,9.24-1.17.82-.05,2.78,1.14,1.94,9.52-6.72,19.33-13.68,30.65-17,10.21-3,21.81-2.68,30.83,3.45a1.13,1.13,0,0,0,1.69-1c-.8-12-1.6-26.3,6.48-36.17,4.37-5.35,10.75-8.21,17.12-10.44,7.49-2.61,15.1-4.94,22.66-7.33q11.75-3.72,23.54-7.29a232.38,232.38,0,0,1,22.91-6A81.53,81.53,0,0,1,678,743a64.8,64.8,0,0,1,20.31,5.71c14.16,6.48,26.18,16.71,37.88,26.79l1.1-1.88c-7.49-2.38-13.56-7.51-19.79-12.08a61.19,61.19,0,0,0-20.92-10.36c-15.54-4.05-32-2.24-47.6.24-29,4.59-62.31,13.39-76.54,41.93-6.69,13.43-8.28,29.8-.47,43.12a1.14,1.14,0,0,0,2,0c8.47-13.37,11.47-29.91,22.74-41.52,10.56-10.87,25.73-16.35,40.57-17.83,18-1.8,36.2,1.41,53.91,4.52,13.45,2.36,27,5.29,39.62,10.53,11.95,4.94,23.28,12.29,30.64,23.15C770.07,828.24,771.77,844,769,859c-2.93,15.65-9.9,30.37-18.16,43.87-8.52,13.92-18.39,27.23-32.38,36.06-25.34,16-57.12,16.59-86.11,15.5-3.62-.14-7.23-.31-10.84-.49a1.13,1.13,0,0,0-1,1.69c5.75,11.18,17.73,16.33,28.64,21.12,5.72,2.52,11.48,5,16.7,8.51a39.08,39.08,0,0,1,7.19,6c2.62,2.84,4.57,6.22,7.14,9.11,5.18,5.81,13,7.24,20.39,7.9a71.86,71.86,0,0,0,20.12-1.15,81.36,81.36,0,0,0,36.5-17.77,74.49,74.49,0,0,0,24.29-37.86l-1.88.5c9.67,8.52,23-1.47,28-10.52,3.5-6.42,5-14,5.75-21.24a173.92,173.92,0,0,0,.33-24.16q-.92-26.77-1.85-53.55l-.92-26.65-.47-13.48c-.13-3.79,0-7.88-1.82-11.32-3-5.73-10.51-7.19-16.33-5.59-7.52,2.08-12.56,8.9-17,14.87-.86,1.17,1.09,2.29,1.94,1.13Z"/><path class="c" d="M306.08,818.61a160,160,0,0,1,74.44-31.67,157.13,157.13,0,0,1,41.16-.68c15.49,1.8,30.74,5.62,46.38,6a86.49,86.49,0,0,0,13.07-.6c3.45-.44,8.48-1.64,10,2.6,1.2,3.29.23,7.53,0,10.9l-1.17,14,1.7-1a143.19,143.19,0,0,0-58.89-20.93,147.77,147.77,0,0,0-62.58,5.51c-20.28,6.38-41,17.33-53.91,34.69C304.39,853.46,300,874,301.68,893.6c1.78,20.23,10.2,39,22.81,54.76,13,16.25,29.93,29.12,48.23,38.84,10.4,5.52,21.44,10.37,33.21,11.83,11.53,1.44,23.18-.92,33.85-5.3,19.7-8.09,37.6-22.12,51.05-38.56,12.93-15.79,22.1-34.8,24.41-55.2,2.24-19.83-1.81-40.72-12.69-57.59a75.41,75.41,0,0,0-9.13-11.49l-1.09,1.88,6.94,2.22a1.15,1.15,0,0,0,1.43-1.08c.16-1.53,1.68-2.3,1.82-3.95l-.56,1c3.17-2.24,7.25-2.9,10.26,0,2.35,2.26,2.25,6.09,2.73,9.11,1.14,7.15,2.14,14.32,2.87,21.53,1.44,14.18,1.89,28.6,0,42.77a103.69,103.69,0,0,1-13.67,39.86c-3.36,5.52-7.9,10.28-10.37,16.31-1.81,4.4-2.9,9.51-1.75,14.23a11.83,11.83,0,0,0,8.86,8.75c3.54.89,7.18,1.44,10.74,2.35,3.74,1,7.44,2.08,11.07,3.4A96,96,0,0,1,533,993.7a26.67,26.67,0,0,0,8.49,2.84,23.28,23.28,0,0,0,17.07-4.35c2.57-1.93,4.3-4.36,6.25-6.86a36.5,36.5,0,0,1,8.88-7.93c6.35-4.24,13.65-7.86,21.48-7.33,9.61.64,17.9,6.68,24.47,13.28,14.92,15,24.18,34.47,34.92,52.41,1,1.66,2,3.31,3.06,4.93.79,1.21,2.74.08,2-1.14-5.34-8.14-9.85-16.83-14.79-25.21-5.77-9.8-11.91-19.49-19.38-28.09-6.46-7.43-14.35-14.56-24-17.34a28.07,28.07,0,0,0-17.31.57,51.34,51.34,0,0,0-10.73,5.45,40.52,40.52,0,0,0-9.09,7.51c-2.21,2.61-3.95,5.53-6.67,7.68a20.74,20.74,0,0,1-9.13,4.07,21.35,21.35,0,0,1-9.57-.47c-3.55-1-6.77-3-10.14-4.47a123.66,123.66,0,0,0-22.48-7c-2.94-.64-6.13-.84-8.65-2.66a9.42,9.42,0,0,1-3.5-5.49c-1.23-5.09.48-10.76,2.8-15.28,1.55-3,3.77-5.58,5.72-8.36a94,94,0,0,0,5.94-9.68c6.77-12.66,10.48-26.66,11.93-40.9,1.48-14.68.64-29.49-1.12-44.1-.87-7.28-2-14.55-3.12-21.79-1-6.4-8.47-8.88-13.8-6.11a5.82,5.82,0,0,0-2,1.36c-.29.45-.28,1-.57,1.44-.73,1.14-1.34,1.75-1.49,3.19l1.42-1.09-6.94-2.22a1.13,1.13,0,0,0-1.1,1.88c13.79,14.27,20.95,33.81,21.69,53.48.75,20.11-5.4,39.67-16.21,56.53-11,17.14-26.48,31.43-43.92,41.86-9.75,5.82-20.4,10.48-31.69,12.19-11.81,1.79-23.38-.44-34.35-4.89a157.74,157.74,0,0,1-51.58-34.07c-14.06-14-25.13-31.4-29.72-50.87-4.43-18.8-3.15-39.41,5.37-56.9,9.41-19.29,27.46-31.91,46.76-40.16a145.42,145.42,0,0,1,119.38,3.28,136.66,136.66,0,0,1,12.93,7.27,1.14,1.14,0,0,0,1.69-1l1.08-13c.29-3.45.94-7.08.49-10.54-.35-2.72-1.68-5.2-4.35-6.22-3.15-1.2-6.73-.18-9.94.15-16.61,1.74-33.07-2-49.4-4.49a168.15,168.15,0,0,0-43.16-1.28,163.94,163.94,0,0,0-41.22,9.91A160.88,160.88,0,0,0,304.48,817c-1.14.88.47,2.47,1.6,1.59Z"/><path class="c" d="M659.2,1039.39c-13.46-2.81-26.72-6.43-40-10.11-12.74-3.55-26.83-8.79-39.74-2.9-5,2.29-9.38,5.66-14.23,8.22a24.33,24.33,0,0,1-6.94,2.59c-2.73.49-5.41-.09-8.14-.35a82.18,82.18,0,0,0-33.82,3.81,84,84,0,0,0-31.95,19.81c-1,1,.56,2.61,1.6,1.59a81.41,81.41,0,0,1,27.85-18.12,79.93,79.93,0,0,1,33-5.09c2.88.16,5.77.76,8.66.82a18.6,18.6,0,0,0,7-1.35c4.86-1.87,9.1-5,13.56-7.59a31.37,31.37,0,0,1,7.43-3.51,38.3,38.3,0,0,1,10.61-1.2c7,.13,13.63,2.42,20.29,4.27,14.64,4.07,29.28,8.17,44.15,11.28,1.42.3,2-1.87.6-2.17Z"/><path class="c" d="M485.06,1059.53l-9.3,5.34a1.13,1.13,0,0,0,1.14,1.94l9.29-5.34a1.12,1.12,0,0,0-1.13-1.94Z"/><path class="c" d="M476.26,1065.41l-2.5,1.89c-.7.53-.76,1.82.27,2,12.55,2.85,21.73,12.55,30.93,20.85,4.72,4.25,9.63,8.41,15.21,11.49,6.82,3.76,14.32,5.21,22.05,5.48a139.76,139.76,0,0,0,26.64-1.72q6.63-1,13.14-2.71a65.17,65.17,0,0,1,11.82-2.3,17.07,17.07,0,0,1,11.21,2.81c1.73,1.21,3.3,2.63,5.08,3.76a27.42,27.42,0,0,0,4.82,2.4c7,2.76,14.59,3,21.78,5a31.18,31.18,0,0,1,16.7,11.14,32.45,32.45,0,0,1,6.73,18.39,28.62,28.62,0,0,1-.25,5c-.2,1.42,2,2,2.17.6a34.45,34.45,0,0,0-16.68-34c-6.57-3.78-14.19-4.51-21.49-6a40.74,40.74,0,0,1-10.77-3.42c-3.6-1.87-6.37-5-10.13-6.61-7.5-3.18-15.9-.34-23.37,1.47a141.33,141.33,0,0,1-27.38,3.85c-8.75.37-17.94.36-26.22-2.88-6-2.35-11.26-6.26-16.12-10.42-9.68-8.3-18.54-18.54-30.8-23.06a36.39,36.39,0,0,0-4.47-1.32l.27,2.06,2.5-1.89c1.14-.86,0-2.81-1.14-1.94Z"/><path class="c" d="M660.29,1148.22c-1.29,10.62-2.81,22-8.78,31.15-6.87,10.55-18.85,13.76-30.47,16.28-26.08,5.66-53.65,8.77-79.84,2-24.71-6.39-46.73-20.89-67.8-34.8a113,113,0,0,1-14.54-11,59.94,59.94,0,0,1-5.49-5.78c-2.13-2.58-5-6-5.13-9.53-.22-7.18,8.12-9.6,13.82-8.78a26.82,26.82,0,0,1,13.18,6,34.22,34.22,0,0,1,12.07,24c.6,10.32-4.25,19.59-12.4,25.81-21.3,16.25-49.7,8-73.51,3.68-53.28-9.74-107.62-12.72-161.71-11.84q-31.18.51-62.36,1.05l-2.08,0a1.13,1.13,0,0,0,0,2.25l63.72-1.08c55.55-.92,111.38,2.16,166,12.53,23.92,4.54,52.31,11.27,72.91-6.18a31.9,31.9,0,0,0,11.67-25.65,36.73,36.73,0,0,0-11-24.63c-6.52-6.3-18.37-11.67-27-6.5-4.35,2.6-6.77,7.7-4.93,12.59,2,5.21,6.59,9.89,10.6,13.62,9.34,8.66,20.7,15.19,31.45,21.91,11.14,7,22.55,13.57,34.69,18.65a125.2,125.2,0,0,0,39.88,9.44c14.08,1,28.24-.24,42.15-2.49,6.81-1.11,13.6-2.45,20.32-4,5.77-1.35,11.58-3,16.74-6,9.84-5.66,14.87-15.81,17.4-26.52a147,147,0,0,0,2.64-16.18c.17-1.44-2.08-1.42-2.25,0Z"/><path class="c" d="M337,779.25c-5.48-15.45,1.18-31.53,9.85-44.35,4.53-6.7,9.62-13,14.74-19.28s10.61-12.57,16.18-18.62q9.38-10.2,19.4-19.77c1-1-.55-2.6-1.6-1.6A437.91,437.91,0,0,0,361,712.77c-5.19,6.28-10.32,12.66-15,19.35-4.57,6.54-8.63,13.56-11,21.22-2.67,8.57-3.22,18-.19,26.51.48,1.36,2.66.77,2.17-.6Z"/><path class="c" d="M777.14,1019c-5.44,22.24-14.76,43.31-26.22,63.08-5.78,10-12.09,19.59-18.74,29s-13.61,18.14-20.52,27.14c-7.55,9.83-14.73,20.4-17.32,32.73-.15.75.53,1.72,1.39,1.38l4.92-2a25.69,25.69,0,0,0,6.38-4,55.67,55.67,0,0,0,13.26-16,161.9,161.9,0,0,0,9.14-19.46l2.06-5a32.24,32.24,0,0,1,2.21-5c1.17-1.85,3.36-1.74,4.91-.37s2,3.39,2.32,5.23c3.71,18.65,5.3,37.92,5.71,56.9.1,4.59.35,9.3,0,13.88a7.14,7.14,0,0,1-2.81,5.4,51.69,51.69,0,0,1-5.13,3.39A145,145,0,0,1,716,1216.65a147.16,147.16,0,0,1-49.7,10.39c-2.11.06-4.21.08-6.32.06l1,1.69,3.19-6.09-1.27.52a384.12,384.12,0,0,0,66.36,9.77c11.3.66,22.64.82,34,.47,10.36-.33,20.63-1.32,31-2.09,16.26-1.21,35.83-1.46,47.14,12.41,5.5,6.75,8.9,15.64,17.29,19.49,8.77,4,19.14,2.35,28.45,2,18.84-.75,39.09-.69,56.2,8.33a60.78,60.78,0,0,1,6,3.63c1.2.83,2.32-1.12,1.14-1.94-15.89-10.92-35.69-12.77-54.45-12.52-4.87.06-9.74.27-14.6.5s-9.88.61-14.77-.06a21.39,21.39,0,0,1-12.72-6c-3.11-3.15-5.33-7-7.79-10.65a39.58,39.58,0,0,0-8.46-9.46,36.21,36.21,0,0,0-10.58-5.56c-8.07-2.73-16.81-3.07-25.25-2.78-9.63.34-19.2,1.54-28.81,2.09q-17,1-34,.4a378.73,378.73,0,0,1-67.34-8.28c-2.72-.59-5.44-1.2-8.15-1.85a1.14,1.14,0,0,0-1.27.52l-3.19,6.08a1.14,1.14,0,0,0,1,1.7,149.55,149.55,0,0,0,76-19.88c1.89-1.09,3.77-2.23,5.61-3.41a26,26,0,0,0,4.94-3.63c3-3.18,2.5-7.87,2.5-11.93a369.37,369.37,0,0,0-4.81-59.31c-.63-3.87-.8-8.88-3.55-12-2.25-2.52-6.37-3-8.51-.13a23.34,23.34,0,0,0-2.3,4.9l-2.13,5.2c-1.48,3.6-3,7.19-4.62,10.73-3.12,6.76-6.73,13.44-11.65,19.08a42.69,42.69,0,0,1-8.27,7.38,30.61,30.61,0,0,1-6.07,2.93l-1.94.78,1.38,1.39c2.33-11.08,8.46-20.7,15.16-29.64s13.92-17.84,20.54-27c13.36-18.55,25.45-38.13,34.68-59.08a219.91,219.91,0,0,0,12.42-36.19c.34-1.4-1.83-2-2.17-.59Z"/><path class="c" d="M778.55,1021.16V997.22a1.13,1.13,0,0,0-2.25,0v23.94a1.13,1.13,0,0,0,2.25,0Z"/></g></svg>