<svg id="Layer_1" data-name="Layer 1" xmlns="http://www.w3.org/2000/svg" viewBox="0 0 512 512"><defs><style>.cls-1{fill:#73d002;}</style></defs><path class="cls-1" d="M84.5,122.6c343-2.7,343-1.8,343-1.8"/><path class="cls-1" d="M84.5,147.6q131.85-1,263.8-1.8c25.1-.1,50.1-.4,75.2-.1,1.1,0,2.3.1,3.5.1h.5c-10.4.3-21.3-7.7-24-18.3,3.2,12.7,18.1,21.6,30.8,17.5,13.1-4.2,20.9-17.2,17.5-30.8-3.3-12.7-14.6-18.2-26.4-18.4-5.7-.1-11.5-.1-17.2-.1-16,0-32,.1-48,.1q-47.25.15-94.5.5-78.3.45-156.7,1.1c-8.1.1-16.2.1-24.4.2-13.1.1-25.6,11.4-25,25s10.9,25.1,24.9,25Z"/><path class="cls-1" d="M84.5,391.4l343-2.7"/><path class="cls-1" d="M84.5,416.4q82-.6,164.2-1.3c33.7-.3,67.4-.5,101.1-.8,17.8-.1,35.5-.3,53.3-.4,6.9-.1,13.9-.1,20.8-.2h3.6c13.1-.1,25.6-11.4,25-25s-11-25.1-25-25H425c-5.9,0-11.9.1-17.8.1-16.1.1-32.3.3-48.4.4-31.4.2-62.9.5-94.3.7L109,366.1c-8.1.1-16.2.1-24.4.2-13.1.1-25.6,11.4-25,25s10.9,25.2,24.9,25.1Z"/><path class="cls-1" d="M84.5,257l343-2.7"/><path class="cls-1" d="M84.5,282q82-.6,164.2-1.3c33.7-.3,67.4-.5,101.1-.8,17.8-.1,35.5-.3,53.3-.4,6.9-.1,13.9-.1,20.8-.2h3.6c13.1-.1,25.6-11.4,25-25s-11-25.1-25-25H425c-5.9,0-11.9.1-17.8.1-16.1.1-32.3.3-48.4.4-31.4.2-62.9.5-94.3.7L109,231.7c-8.1.1-16.2.1-24.4.2-13.1.1-25.6,11.4-25,25S70.5,282.1,84.5,282Z"/></svg>



