<svg xmlns="http://www.w3.org/2000/svg" viewBox="0 0 1342 702"><defs><style>.a{fill:#f2f2f2;}.b{fill:none;stroke:#f2f2f2;stroke-miterlimit:10;stroke-width:6px;}</style></defs><path class="a" d="M81.19,39.66c17.4,0,32.2,2.9,44.2,8.8s21.3,14.1,27.6,24.7,9.5,23.2,9.5,37.8a90.59,90.59,0,0,1-3.9,26,70.54,70.54,0,0,1-12.3,23.7c-5.6,7.1-13.2,12.8-22.7,17.1s-21.1,6.5-34.9,6.5H58.79v66.9H17.19V39.66Zm7.2,104c6.3,0,11.6-1.1,15.8-3.3a28.16,28.16,0,0,0,9.9-8.3,34.33,34.33,0,0,0,5.2-10.5,36.89,36.89,0,0,0,1.6-9.5,46.17,46.17,0,0,0-1-8.5,36.48,36.48,0,0,0-4.2-10.8,25.82,25.82,0,0,0-9.6-9.2c-4.3-2.5-10.1-3.7-17.4-3.7H58.79v63.8Z"/><path class="a" d="M281.74,63a89.21,89.21,0,0,1,17.37-11.21,81.79,81.79,0,0,0-15.92-7.08c-10.3-3.3-22.1-5-35.3-5h-64.1V175.5c11-17.89,26.4-32.4,41.7-46.94V79.86h29.9a47.88,47.88,0,0,1,9.73.9C269.1,73.69,275.74,67.69,281.74,63Z"/><path class="a" d="M699.92,51.92H832v40.2h-90.5v48h78.4v40.2h-78.4v83h-41.6Z"/><path class="a" d="M872.22,51.92h41.6v211.4h-41.6V51.92Z"/><path class="a" d="M968.42,51.92H1010v171.2h99.4v40.2h-141Z"/><path class="a" d="M1152.52,51.92h144.2v40.2h-102.5v45.1h90.7v40.2h-90.7v45.7h106.5v40.2h-148.2Z"/><path class="b" d="M498.77,77.61a108,108,0,0,1,152,153.14"/></svg>