<svg xmlns="http://www.w3.org/2000/svg" viewBox="0 0 500 500"><defs><style>.a{opacity:0.08;}.b{stroke:#000;stroke-miterlimit:10;stroke-width:2px;}</style></defs><g class="a"><path class="b" d="M294.66,372c-15.62.38-28.57-11.81-29-27.05V261.51c0-58.27,9.52-102.83,27-137.87,15.62-27,40.76-44.56,75.8-50.28,13.71-1.9,27,3.81,33.13,13.72h0a26.29,26.29,0,0,1-11.42,35,52.83,52.83,0,0,0-27.43,27c-7.61,15.61-11.8,36.94-13.71,65.89,0,15.61,11.81,27,28.95,27H401.3c15.62-.38,28.57,11.81,28.95,27v75.79A27.81,27.81,0,0,1,401.3,372Z"/></g><g class="a"><path class="b" d="M105.7,372c-15.62.38-28.57-11.81-28.95-27.05V261.51c0-58.27,9.53-102.83,27.05-137.87,15.61-27,40.75-44.56,75.79-50.28,13.71-1.9,27,3.81,33.13,13.72h0a26.28,26.28,0,0,1-11.42,35,52.78,52.78,0,0,0-27.42,27c-7.62,15.61-11.81,36.94-13.72,65.89,0,15.61,11.81,27,29,27h23.23c15.62-.38,28.57,11.81,28.95,27v75.79A27.81,27.81,0,0,1,212.34,372Z"/></g></svg>