<svg xmlns="http://www.w3.org/2000/svg" viewBox="0 0 500 500"><defs><style>.a{font-size:48px;font-family:Neon80s, "Neon 80s";letter-spacing:0.48em;}.b{letter-spacing:0.44em;}.c{letter-spacing:0.5em;}.d{fill:#fff;}</style></defs><text class="a" transform="translate(156.86 334.02)">c<tspan class="b" x="48.63" y="0">y</tspan><tspan class="c" x="97.99" y="0">cle</tspan></text><path d="M273.75,190.91a48.57,48.57,0,0,1,82.89-33.86,48.63,48.63,0,0,1,0,68.69,48.72,48.72,0,0,1-63.05,4.87v38.33a9.92,9.92,0,0,1-19.84,0Z"/><path d="M293.5,189.35a17.29,17.29,0,0,1,.09,1.76v3.69a28.9,28.9,0,1,0,28.7-32.3,28,28,0,0,0-20.43,8.37A27.48,27.48,0,0,0,293.5,189.35Z"/><path d="M157,172.16V230c0,9.38,1.85,18.53,6.87,26.6a46.35,46.35,0,0,0,35.38,22c13.7,1.58,28-3.91,37.61-13.74a47.29,47.29,0,0,0,13.3-32.94c0-5.24,0-10.48,0-15.72v-44c0-4.71-4.14-9.22-9-9a9.15,9.15,0,0,0-9,9v54.58a81.25,81.25,0,0,1-.35,10.7l.32-2.39a38.53,38.53,0,0,1-2.57,9.37l.91-2.15a38.75,38.75,0,0,1-5,8.48l1.41-1.83a39,39,0,0,1-6.67,6.68l1.82-1.41a38.75,38.75,0,0,1-8.48,5l2.15-.91a38.53,38.53,0,0,1-9.37,2.57l2.4-.32a39.14,39.14,0,0,1-10.37,0l2.39.32a38.53,38.53,0,0,1-9.37-2.57l2.15.91a38.75,38.75,0,0,1-8.48-5l1.82,1.41a39.4,39.4,0,0,1-6.67-6.68l1.41,1.83a38.75,38.75,0,0,1-5-8.48l.91,2.15a38.53,38.53,0,0,1-2.57-9.37l.32,2.39A72.09,72.09,0,0,1,175,228V172.16c0-4.71-4.14-9.22-9-9a9.15,9.15,0,0,0-9,9Z"/><path d="M134.74,197.38l12.62-12.62,20-20,4.61-4.61H159.24l12.61,12.62,20,20,4.61,4.61c3.34,3.33,9.44,3.58,12.73,0a9.16,9.16,0,0,0,0-12.73L196.58,172l-20-20L172,147.42a9.15,9.15,0,0,0-12.73,0L146.63,160l-20,20L122,184.65c-3.33,3.33-3.58,9.44,0,12.73a9.17,9.17,0,0,0,12.73,0Z"/><path class="d" d="M16.88,55.88a11.43,11.43,0,0,1,3-9,10.86,10.86,0,0,1,6-3"/><path class="d" d="M25.82,43.88a11.35,11.35,0,0,1-3,9,10.73,10.73,0,0,1-6,3"/><path class="d" d="M341.15,211.14a30.53,30.53,0,0,0-6.66,25.1c.94-1.32,1.87-2.65,2.8-4l12.77-18.17-.93-5.33a1.29,1.29,0,0,1,2.54-.44l.48,2.79,5.8-8.24,3.91-4.5C358.35,199.47,347.92,203,341.15,211.14Z"/><path class="d" d="M342.12,229.87l4.2-.73a1.28,1.28,0,1,1,.44,2.53l-6.64,1.16a.21.21,0,0,0-.08,0l-4.73,6.72c3.65-1.15,12.58-4.46,19.22-12.46,7.65-9.22,8.39-22,7.55-27.44Z"/><path class="d" d="M328.41,210c-.36-.92-2.86-7.5.76-13.91a15.84,15.84,0,0,1,7.33-6.58"/><path class="d" d="M336.42,189.56c.36.91,2.87,7.5-.76,13.91a15.84,15.84,0,0,1-7.33,6.58"/><path class="d" d="M323.41,194.26a7.86,7.86,0,0,0-2.06-6.2,7.51,7.51,0,0,0-4.13-2.06"/><path class="d" d="M317.26,186a7.84,7.84,0,0,0,2.06,6.19,7.47,7.47,0,0,0,4.13,2.07"/><path class="d" d="M326.75,237a26.54,26.54,0,0,0-1.91-7.46,20.23,20.23,0,0,0-4-6.1,25.18,25.18,0,0,0-5.8-4.54,47.38,47.38,0,0,0-7.08-3.26,18.11,18.11,0,0,1,8.08,1.12,18.29,18.29,0,0,1,7,4.63,16.24,16.24,0,0,1,4,7.43A14.47,14.47,0,0,1,326.75,237Z"/><path class="d" d="M308.13,215.63a26.2,26.2,0,0,0,1.9,7.46,20.42,20.42,0,0,0,4,6.1,25.18,25.18,0,0,0,5.8,4.54,47.38,47.38,0,0,0,7.08,3.26,18.11,18.11,0,0,1-8.08-1.12,18.29,18.29,0,0,1-7-4.63,16.24,16.24,0,0,1-4-7.43A14.38,14.38,0,0,1,308.13,215.63Z"/></svg>