<svg xmlns="http://www.w3.org/2000/svg" viewBox="0 0 1366 768"><path d="M149.44,415.69H570.27a50,50,0,0,1,50,50v25.88a46.31,46.31,0,0,0,46.31,46.32h2.2a46.31,46.31,0,0,0,46.31-46.32V460.31a140,140,0,0,0-140-140H154.27a50,50,0,0,1-50-50V246.62a48.51,48.51,0,0,0-48.51-48.51h0A46.32,46.32,0,0,0,9.44,244.43v31.26A140,140,0,0,0,149.44,415.69Z"/><path d="M1279.9,685.09a54.64,54.64,0,0,0,54.63-54.63l.07-538.53a40.84,40.84,0,0,0-40.85-40.84h-61.86a55.79,55.79,0,0,0-39.3,16.18L1002,256.24a42.06,42.06,0,0,1-59.59-.37L757.28,67.76a55.8,55.8,0,0,0-39.79-16.67H54.37c-24.86.15-44.93,24.37-44.93,49.23h0A50.55,50.55,0,0,0,60,150.87H716.9l201,208.66a70.47,70.47,0,0,0,25.74,17.14l.25.1a66.62,66.62,0,0,0,49.46,0l.25-.1a71.53,71.53,0,0,0,25.53-16.79L1198.24,178a12.88,12.88,0,0,1,22.06,9v438.5a59.61,59.61,0,0,0,59.6,59.6Z"/><rect x="9.44" y="589.71" width="706.65" height="95.38" rx="47.69"/></svg>