<?xml version="1.0" encoding="utf-8"?>
<!-- Generator: Adobe Illustrator 25.3.0, SVG Export Plug-In . SVG Version: 6.00 Build 0)  -->
<svg version="1.0" id="Layer_1" xmlns="http://www.w3.org/2000/svg" xmlns:xlink="http://www.w3.org/1999/xlink" x="0px" y="0px"
	 viewBox="0 0 500 500" style="enable-background:new 0 0 500 500;" xml:space="preserve">
<style type="text/css">
	.st0{fill:#FFFFFF;stroke:#FFFFFF;stroke-miterlimit:10;}
</style>
<path class="st0" d="M90.7,142.2c39.7,35.2,87.7,56,145.3,63.3c13.4,1.7,17.6,0.3,17.1-11.3c-1-25.3,14.3-44.9,42.9-56.6
	c28.7-11.6,58.4-10.3,84.1,5.2c22.7,13.7,38.8-3.8,59-4.7c-0.9,5.4-15.7,19.9-22.4,27.6c10,4.3,17.7-3.7,26.9-2.4
	c0.7,1.1,14.8-2.8,1.7,3c-39.8,20.6-47,76.6-56.3,106.1c-34.5,110.9-199.4,152.8-325.7,91.3c18.8-2.3,49.8-8,67.2-11.3
	c17.9-3.5,30.6-12.9,46.6-24.6c-32.6-5.5-57.5-16.9-68.7-43.3c8.7-0.3,25-0.6,32.1-0.9C106,270.3,85,247.2,78.2,220.2
	c10.9-3.9,32,13.2,42.3,8.2C94,206.1,69.8,173.4,90.7,142.2z"/>
</svg>
