<svg xmlns="http://www.w3.org/2000/svg" viewBox="0 0 1366 768"><defs><style>.a{fill:#c69c6d;}.b{opacity:0.5;}</style></defs><ellipse class="a" cx="487.56" cy="284.4" rx="97.24" ry="93.77"/><path class="a" d="M319.41,292.51c-12.25-18.07-25.64-24.24-49.31-34.68-58-25.58-101.63-15.94-120.21-10.19C131,253.49,123.16,259.92,117.53,268c-14.35,20.68-14.91,53-9.25,75.46,12.16,48.32,55.88,62.84,63.19,65.27,21.7,7.2,26.85-1,90.92-12.24,53.47-9.41,66.77-6.69,74-22.43C346.77,351.35,333.73,313.61,319.41,292.51Z"/><g class="b"><path d="M210.38,102.3c10-12.35,19.74-24.94,30.45-36.69S263.41,42.89,277,34.46a110,110,0,0,1,23.36-11.11,105.61,105.61,0,0,1,27.51-5.14c18.43-1,36.77,2.64,54.31,8.07,17.83,5.53,35,12.92,52.18,20.16l6.31,2.65c.45.18.64-.54.2-.73-17.47-7.29-34.82-15-52.79-21-17.39-5.81-35.53-10.08-53.94-10.1a107.1,107.1,0,0,0-52,13.29c-14,7.72-26.25,18.13-37.28,29.62-11.18,11.66-21.17,24.38-31.28,37l-3.72,4.6c-.3.37.23.9.53.53Z"/><path d="M441.54,50.14q23.29,10.71,46.31,22,11.4,5.61,22.72,11.36c7.33,3.72,14.71,7.37,21.89,11.37,6.64,3.69,12.95,8,17.82,13.91,4.72,5.74,8,12.51,10.74,19.4s5,14.29,7.39,21.48q3.76,11.49,7.31,23.06c4.78,15.6,9.25,31.31,13.08,47.18.46,1.89.9,3.78,1.34,5.67.11.47.83.27.72-.2-3.68-16-8.06-31.76-12.77-47.44-4.62-15.36-9.35-30.77-14.8-45.86A90.78,90.78,0,0,0,554,112.63,52.36,52.36,0,0,0,538.6,97.68c-6.72-4.35-14-7.82-21.13-11.47Q506,80.3,494.36,74.55,471.17,63,447.69,52.15l-5.77-2.66c-.43-.2-.82.44-.38.65Z"/><path d="M590.83,226.07c3.81-5.17,7.92-10.69,13.95-13.42,6.32-2.86,15.35-1.32,17.53,6.12.84,2.86.74,5.95.84,8.9l.42,11.91.84,24.46q.86,24.45,1.69,48.91c.52,14.81,1.82,30.26-2.43,44.67-2.07,7-5.56,13.29-11.68,17.53-5.13,3.54-12,5.25-17.1.75a.38.38,0,0,0-.63.16c-5.12,19.85-19.28,36.44-37.08,46.27a77.16,77.16,0,0,1-28.76,9.25,69.46,69.46,0,0,1-14.91,0c-5.83-.63-12.24-1.75-16.66-5.91-4-3.72-6.51-8.67-10.39-12.49a75.29,75.29,0,0,0-11.2-8.83c-8.42-5.63-17.49-10.3-25.59-16.41a51.7,51.7,0,0,1-10.52-10.16c-.32-.42-.64-.86-.94-1.3a4.67,4.67,0,0,1-.55-.84c-.3-.82-.56-.11.19-1.32.59-1,.36-.83,1.25-.78l1,.06,2.48.16c2.83.18,5.67.39,8.5.59,11.44.83,22.9,1.7,34.38,1.59,10.9-.1,21.92-1.1,32.39-4.25a68.54,68.54,0,0,0,27.84-16.12c8.9-8.51,15.89-18.93,22.13-29.48a142.81,142.81,0,0,0,14.72-32.93c3.13-10.84,4.56-22.39,2.53-33.57a53.13,53.13,0,0,0-14.12-27.41c-14-14.44-34.36-20.72-53.47-24.8-11.59-2.47-23.35-4.42-35.1-5.9-13.17-1.67-26.68-2.31-39.75.4-10.77,2.24-21.27,6.71-29.64,13.94-9,7.78-13.7,18.37-18.29,29.08a110.62,110.62,0,0,1-7.87,15.74h.65c-7-11.87-6.18-26.37-.87-38.71,5.74-13.34,16.26-23.33,28.94-30.1,13.6-7.25,28.85-10.81,43.93-13.37,15.51-2.63,31.76-4.86,47.36-1.72a59.11,59.11,0,0,1,23.29,10.42c6.65,4.82,13,10.31,21,12.83a.38.38,0,0,0,.36-.63c-10.77-9.28-21.77-18.65-34.48-25.22a67,67,0,0,0-42.76-7.23A167.15,167.15,0,0,0,450,172.53c-8.08,2.38-16.12,4.88-24.15,7.4s-16,5.06-24,7.7c-6.33,2.09-12.84,4.45-17.88,9-11.05,9.92-10.49,26.46-9.58,40l.56-.33c-7.06-4.8-15.79-6.18-24.17-5.19-9,1.07-17.34,4.85-25,9.48-4.74,2.86-9.27,6-13.8,9.24-.39.28,0,.93.38.65,9.58-6.76,19.44-13.74,30.83-17.06,10.39-3,22.23-2.71,31.4,3.53a.38.38,0,0,0,.57-.32c-.82-12.21-1.52-26.62,6.7-36.71,4.45-5.46,11-8.39,17.52-10.65,7.46-2.6,15-4.92,22.56-7.3q11.52-3.65,23.08-7.14a233.73,233.73,0,0,1,23.14-6.11,81.58,81.58,0,0,1,24-1.5,65.74,65.74,0,0,1,20.46,5.7c14.31,6.49,26.45,16.84,38.26,27l.37-.62c-7.56-2.4-13.68-7.54-20-12.16a60.7,60.7,0,0,0-20.74-10.28c-15.4-4-31.7-2.22-47.2.24-28.83,4.56-61.95,13.23-76.09,41.59-6.57,13.18-8.15,29.28-.47,42.36a.38.38,0,0,0,.65,0c6.5-10.25,9.66-22.16,15.9-32.54s15.66-17.59,26.67-22c24.49-9.91,51.92-4.83,77-.33,20,3.58,41.31,8.49,57.55,21.36a53.82,53.82,0,0,1,17.87,25.07c3.74,11.35,3.33,23.58.69,35.11-2.76,12-7.79,23.45-13.79,34.18-6.14,11-13.16,21.82-21.92,30.88a68.42,68.42,0,0,1-28.94,18c-10.6,3.33-21.78,4.38-32.84,4.5-11.56.13-23.11-.76-34.63-1.59-2.83-.2-5.67-.41-8.5-.59a37.17,37.17,0,0,0-4.21-.26,1.92,1.92,0,0,0-1.74,1c-.76,1.57,1.26,3.56,2.12,4.69a43.49,43.49,0,0,0,4.39,4.91c14.43,14,35.67,19.61,47.79,36.14,3.3,4.51,6.44,8.57,11.86,10.57a50.85,50.85,0,0,0,15.49,2.57,73.94,73.94,0,0,0,28.94-4.93c18.25-6.95,34.15-20.63,42.84-38.21a69.25,69.25,0,0,0,4.94-13.3l-.63.17c9.27,8.16,22.12-1.8,26.79-10.37,3.44-6.3,4.91-13.79,5.65-20.86a173.94,173.94,0,0,0,.33-24.16q-.92-26.78-1.85-53.55l-.92-26.65-.47-13.49c-.1-2.91,0-5.95-.86-8.78-2-7-10.27-9.47-16.73-7.32-7.13,2.37-11.84,8.64-16.12,14.44-.29.39.36.77.65.38Z"/><path d="M119.8,243a160.82,160.82,0,0,1,76.25-32.07,164.09,164.09,0,0,1,46.84.44c14.71,2.17,29.41,5.48,44.36,5.11,4.12-.1,8.11-.87,12.2-1.18,3.65-.28,6.47,1.58,7,5.24.52,3.35-.17,6.95-.45,10.29l-1.11,13.33.57-.33c-30-19-67-25.82-101.87-19.92a136.88,136.88,0,0,0-50.23,18.93,83.52,83.52,0,0,0-20.75,18A71.88,71.88,0,0,0,121,282c-5.55,15.72-6,33.06-2.36,49.26,3.79,16.68,12.3,31.94,23.39,44.87,11.29,13.16,25.2,23.95,40.21,32.55,8.32,4.76,17,9.12,26.22,12a61.9,61.9,0,0,0,28.76,2.13c18.48-3.09,35.48-13.51,49.64-25.39,13.28-11.14,24.63-24.8,32.28-40.41a96.33,96.33,0,0,0,9.88-49.85c-1.32-16.88-7.3-33.54-18.18-46.63-.48-.58-1.14-.9-.78-1.55a2.91,2.91,0,0,1,.89-.69,26.05,26.05,0,0,1,3.5-1.87,46,46,0,0,1,7.8-2.92c3.9-1,6.5,2.57,6.87,6.17.45,4.4,1.36,8.79,2,13.17,2.56,18,4.06,36.41,1.88,54.55-2.23,18.61-8.78,36.49-20.36,51.35-6.34,8.13-10.81,26.22,3.27,29.14,9.69,2,19.2,4.37,28.25,8.47,3.72,1.69,7.16,3.72,11.26,4.36a22.88,22.88,0,0,0,10.52-.81,22.14,22.14,0,0,0,9.17-5.76c1.52-1.61,2.69-3.5,4.1-5.21a30.87,30.87,0,0,1,5.81-5.43c7.65-5.52,16.7-10.42,26.44-9,12.72,1.85,22.71,12,30.33,21.63,8.74,11,15.68,23.31,22.62,35.49,2.62,4.6,5.23,9.23,8.13,13.67.26.4.91,0,.65-.38-6.7-10.24-12.22-21.23-18.65-31.63-7.05-11.4-14.95-23-25.59-31.41a39.09,39.09,0,0,0-14.86-7.62c-7.91-1.88-15.59.25-22.54,4.16a47.56,47.56,0,0,0-11.26,8.17c-3.11,3.27-5.22,7.25-9,9.86a21.67,21.67,0,0,1-11.62,3.8,24.53,24.53,0,0,1-11.9-3,115.68,115.68,0,0,0-27.1-9.19c-3.55-.78-7.38-1-10.15-3.63a11.58,11.58,0,0,1-3.24-8.24,25,25,0,0,1,1.91-9.72c1.42-3.62,3.59-6.55,5.87-9.67a97,97,0,0,0,12.73-23.85c6.09-16.61,7.57-34.51,6.83-52.08-.38-8.87-1.31-17.7-2.53-26.5-.63-4.59-1.5-9.16-2.11-13.75-.4-3.13-1.18-6.3-4.37-7.7-2-.86-3.89-.09-5.82.57a52.08,52.08,0,0,0-7.5,3.18c-.89.47-3.18,1.41-3.21,2.66,0,.22.11.32.19.5a15.38,15.38,0,0,0,2.09,2.51q2.14,2.72,4,5.63c9.58,14.77,13.79,32.66,13.1,50.16-1.43,35.88-24.24,67.25-53.07,87.07-16.28,11.19-35.92,20-56.11,17.2-10.19-1.43-19.81-5.47-28.91-10.12a175.23,175.23,0,0,1-22.68-13.77c-14.2-10.21-26.86-22.82-36.06-37.77a96.1,96.1,0,0,1-14.6-49.07c-.23-16.88,4.25-34,14.25-47.77,11.13-15.34,28.63-25.48,46.08-32.08a146.67,146.67,0,0,1,104.38.84,136.86,136.86,0,0,1,23.33,11.87.38.38,0,0,0,.56-.32l1.05-12.63a73.41,73.41,0,0,0,.63-9.71,8.12,8.12,0,0,0-1.92-5.36c-1.71-1.78-4.33-2.12-6.67-1.84a118.47,118.47,0,0,1-12.19,1.12,109.14,109.14,0,0,1-11.72-.46c-8.07-.71-16.06-2.11-24.05-3.42-15.78-2.59-31.46-4-47.43-2.53a162.44,162.44,0,0,0-42.89,10,159.55,159.55,0,0,0-41.22,23.17c-.39.3.15.83.53.53Z"/><path d="M473.25,465c-13.46-2.81-26.72-6.43-40-10.11l-10.07-2.8a74.29,74.29,0,0,0-10-2.32C407,449,400,449.28,394.13,452c-5,2.28-9.39,5.66-14.23,8.22a25.3,25.3,0,0,1-7.12,2.66c-2.81.51-5.53-.06-8.34-.32a81.57,81.57,0,0,0-33.62,3.78,83,83,0,0,0-31.62,19.62.38.38,0,0,0,.53.53,82.37,82.37,0,0,1,28.19-18.31A80.54,80.54,0,0,1,361.17,463c2.88.16,5.77.76,8.66.81a17.76,17.76,0,0,0,6.78-1.32c4.8-1.84,9-4.93,13.38-7.51a32.88,32.88,0,0,1,7.61-3.59,39.36,39.36,0,0,1,10.81-1.22c7,.13,13.76,2.42,20.49,4.29,14.64,4.08,29.28,8.17,44.15,11.29.47.1.67-.63.2-.73Z"/><path d="M299.69,485.09l-9.3,5.35a.37.37,0,0,0,.38.64l9.29-5.34a.37.37,0,0,0-.37-.65Z"/><path d="M290.89,491l-2.5,1.88c-.23.18-.25.61.09.69,12.68,2.87,22,12.64,31.26,21,4.67,4.21,9.53,8.32,15.06,11.37,6.7,3.69,14.08,5.11,21.67,5.38a138.48,138.48,0,0,0,26.44-1.7q6.63-1,13.14-2.71a67.37,67.37,0,0,1,12-2.33,17.77,17.77,0,0,1,11.59,2.92c1.72,1.21,3.3,2.63,5.08,3.76a27.59,27.59,0,0,0,4.64,2.33c7,2.75,14.59,3,21.77,5a31.94,31.94,0,0,1,17.16,11.47,33.18,33.18,0,0,1,6.83,18.77,30,30,0,0,1-.28,5.19c-.07.47.65.67.72.2a33.68,33.68,0,0,0-16.33-33.16c-6.51-3.74-14.08-4.45-21.31-5.89a41.29,41.29,0,0,1-10.95-3.5c-3.6-1.87-6.36-5-10.13-6.61-7.3-3-15.54-.2-22.79,1.55a142.63,142.63,0,0,1-27.58,3.88c-8.81.37-18.09.35-26.42-2.91-6.13-2.4-11.49-6.36-16.45-10.61-9.57-8.21-18.34-18.4-30.47-22.87a36.39,36.39,0,0,0-4.47-1.32l.09.69,2.5-1.89c.38-.28,0-.94-.38-.64Z"/><path d="M475.29,573.14c-1.31,10.75-2.84,22.25-8.88,31.53-7,10.73-19.09,14.06-30.92,16.62-26.22,5.69-53.92,8.81-80.24,2-24.77-6.4-46.86-20.93-68-34.88a113,113,0,0,1-14.7-11.15,59.94,59.94,0,0,1-5.49-5.78c-2.27-2.74-5.25-6.32-5.35-10.05-.21-7.67,8.51-10.4,14.67-9.52A27.67,27.67,0,0,1,290,558.07a35,35,0,0,1,12.29,24.57c.61,10.58-4.41,20.1-12.77,26.45-21.52,16.35-50.05,8.15-74.09,3.76C162.24,603.12,108,600.16,53.94,601q-31.18.5-62.36,1.05l-2.08,0a.38.38,0,0,0,0,.76l63.72-1.08c55.62-.93,111.51,2.17,166.24,12.55,23.61,4.48,51.83,11.26,72.18-6a31.17,31.17,0,0,0,11.45-25.12,36,36,0,0,0-10.75-24.09c-6.27-6.06-17.77-11.38-26.11-6.39-4.08,2.44-6.33,7.18-4.59,11.74,1.94,5.08,6.5,9.66,10.41,13.29,9.29,8.62,20.61,15.11,31.3,21.8,11.08,6.92,22.43,13.52,34.51,18.57a124.19,124.19,0,0,0,39.68,9.41c14,1,28.1-.22,41.95-2.46,6.81-1.1,13.6-2.45,20.32-4,5.71-1.33,11.45-3,16.57-5.9,9.67-5.57,14.56-15.55,17.05-26.07a146.15,146.15,0,0,0,2.61-16c.06-.48-.69-.48-.75,0Z"/><path d="M150.48,204.37c-5.54-15.64,1.15-32,9.93-44.93,4.56-6.75,9.68-13.14,14.85-19.43s10.61-12.57,16.18-18.63q9.38-10.18,19.4-19.77c.34-.33-.19-.86-.54-.53a437.91,437.91,0,0,0-34.54,37.14c-5.15,6.23-10.24,12.56-14.87,19.19s-8.58,13.45-10.95,21.05c-2.63,8.45-3.17,17.68-.19,26.11.16.45.89.25.73-.2Z"/><path d="M591.3,422.14c0,2.33.46,4.69.62,7,.18,2.57.28,5.15.33,7.73s.31,5.19-.26,7.67c-3.15,13.81-8.35,27.31-14.32,40.12-12.06,25.92-28.33,49.65-45.91,72.11-9.29,11.86-19.27,24.11-22.44,39.21-.06.25.17.58.46.46l5.46-2.18c2.76-1.11,5.33-3.31,7.52-5.28,5.73-5.14,10-11.7,13.47-18.5,3.65-7.13,6.54-14.6,9.61-22,.74-1.78,1.44-4.35,3.56-4.93,3-.82,5.15,2.06,6,4.55a47,47,0,0,1,1.33,6.66q.64,3.9,1.22,7.82c1.56,10.68,2.64,21.44,3.24,32.22q.45,7.9.55,15.82c0,2.64,0,5.27,0,7.91s0,5.2-1.64,7.26c-1.52,1.88-3.86,3.13-5.88,4.4s-4,2.46-6.07,3.61q-6.15,3.46-12.61,6.32a148.55,148.55,0,0,1-27.16,9,146.89,146.89,0,0,1-28.63,3.6,13.34,13.34,0,0,1-3.28,0c-1.76-.46-1-1.28-.53-2.1.74-1.42,1.18-3,3.1-2.85a36.73,36.73,0,0,1,3.81.87l3.81.83c2.64.56,5.29,1.09,7.93,1.6a381.73,381.73,0,0,0,61.89,6.57q15.63.38,31.23-.53c9-.52,18-1.61,27-2,8-.34,16.12-.17,23.85,2a34.44,34.44,0,0,1,19.28,13.33c4.51,6.33,8.13,13.84,15.61,17.17,8,3.58,17.43,2.23,25.94,1.86,17.68-.76,36.25-1,52.93,5.77a60.46,60.46,0,0,1,11.56,6.22c.4.28.77-.37.38-.64-15.3-10.53-34.28-12.56-52.38-12.44-4.72,0-9.44.2-14.15.42a129.26,129.26,0,0,1-14.19.3c-4.77-.3-9.57-1.42-13.46-4.32-3.61-2.69-6.14-6.51-8.57-10.23a56.2,56.2,0,0,0-7.32-9.61,32.92,32.92,0,0,0-9.49-6.42c-7.27-3.28-15.37-4.19-23.27-4.26-8.84-.08-17.63,1-26.44,1.64Q578.51,657.2,562,657a380.26,380.26,0,0,1-65.62-6.34q-8.1-1.5-16.11-3.35c-1.56-.36-3-.71-3.94.85a30.52,30.52,0,0,0-1.49,2.83c-1.76,3.58,4.61,2.46,6.36,2.4q7.25-.25,14.42-1.24A148.71,148.71,0,0,0,551.12,633c2.09-1.24,4.16-2.52,6.18-3.87a11.81,11.81,0,0,0,4.14-4c1-1.92,1-4.18,1-6.3,0-2.73,0-5.46,0-8.19q-.23-16.68-2-33.28-.84-8.05-2-16.08c-.42-2.8-.86-5.59-1.34-8.37a27.19,27.19,0,0,0-1.45-6.06c-1.3-3-5.26-5.86-8.2-3-1.16,1.12-1.68,2.82-2.28,4.27-.82,2-1.63,4-2.44,5.94-3.25,7.89-6.57,15.83-11.15,23.06a55.9,55.9,0,0,1-7.74,9.81,31.49,31.49,0,0,1-8.69,6.57c-1.83.83-3.74,1.5-5.6,2.24l.46.46c2.94-14,11.81-25.55,20.44-36.57s17.15-22.4,24.95-34.17c15.58-23.54,28.76-49,36.16-76.33a30.59,30.59,0,0,0,1.46-8.18c0-3.43-.09-6.86-.28-10.29-.17-2.83-.7-5.69-.72-8.52a.38.38,0,0,0-.75,0Z"/></g></svg>