<?xml version="1.0" encoding="utf-8"?>
<!-- Generator: Adobe Illustrator 25.3.0, SVG Export Plug-In . SVG Version: 6.00 Build 0)  -->
<svg version="1.1" id="Layer_1" xmlns="http://www.w3.org/2000/svg" xmlns:xlink="http://www.w3.org/1999/xlink" x="0px" y="0px"
	 viewBox="0 0 500 500" style="enable-background:new 0 0 500 500;" xml:space="preserve">
<style type="text/css">
	.st0{opacity:0.95;fill:#F47A20;enable-background:new    ;}
	.st1{opacity:0.97;}
	.st2{fill:#060706;}
	.st3{fill:#FFFFFF;}
	.st4{fill:#FDFDFD;}
	.st5{fill:#0E0E0E;}
	.st6{fill:#F2F0F0;}
	.st7{fill:#1E1F1F;}
	.st8{opacity:0.99;}
	.st9{stroke:#000000;stroke-width:2;stroke-miterlimit:10;}
	.st10{fill:#333333;stroke:#333333;stroke-width:2;stroke-miterlimit:10;}
	.st11{fill:#020202;}
	.st12{opacity:0.94;}
	.st13{fill:none;stroke:#231E20;stroke-width:2;stroke-miterlimit:10;}
	.st14{fill:none;stroke:#231E20;stroke-width:3;stroke-miterlimit:10;}
</style>
<path class="st0" d="M430.7,234.6c0,98.4-124.2,190.6-222.8,190.6S73.7,333,73.7,234.6S154.8,73.2,252.2,56.5
	C395.5,31.8,430.7,136.2,430.7,234.6z"/>
<g class="st1">
	<path class="st2" d="M281,167.3c22.9,0,45.8,0,68.7,0c11.7,0,14.9,3.4,14.9,16c0,33.5,0.1,66.9,0,100.4c0,11.5-3.9,15.8-14.5,15.9
		c-17,0.1-34,0.3-51.1-0.1c-5.3-0.1-7.1,1.1-7,7.3c0.3,16,0.8,16.9,16.2,17.8c2.6,0.2,6.5-0.7,6.2,3.8c-0.2,4.3-4,3.3-6.6,3.3
		c-18.4,0-36.8,0-55.2,0c-2.7,0-6.5,0.7-6.6-3.4c-0.1-4.2,3.7-3.5,6.4-3.6c15.8-0.9,16.9-2.4,16.6-19.1c-0.1-4.9-1.4-6-5.7-5.9
		c-17,0.3-34,0.1-51.1,0.1c-12.2,0-15.9-4-15.9-17.2c0-33.2,0-66.3,0-99.5c0-12.1,3.2-15.7,14.4-15.7
		C234.2,167.2,257.6,167.3,281,167.3L281,167.3z"/>
	<path class="st3" d="M203.1,176.9c2.6-3.2,6.1-2.5,9.3-2.5c45.3,0,90.7,0,136,0c3.3,0,6.8-0.6,9.4,2.5c1.4,27.7,0.2,55.4,0.6,83.1
		c0.1,3.6-1.5,4.8-4.6,4.6c-1.1-0.1-2.2,0-3.3,0c-46.6,0-93.3-0.1-139.9,0.1c-6,0-8.3-1.2-8.1-8.3
		C203.2,230,201.9,203.4,203.1,176.9z"/>
	<path class="st4" d="M280.5,271.1c23.4,0,46.9,0.1,70.3-0.1c4.9,0,8.3,0.4,7.1,7c-1,5.6,3.5,14.5-7.2,14.5c-17.3,0-34.6,0-51.9,0
		c-28.5,0-56.9,0-85.4,0c-3.5,0-8.1,1.5-9.7-3c-1.9-5.4-1.4-11.4-0.4-17c0.5-2.6,3.9-1.3,6-1.3C233.1,271,256.8,271.1,280.5,271.1z"
		/>
	<path class="st5" d="M203.1,176.9c-0.1,27.1-0.1,54.3-0.3,81.4c0,4.4,1.2,5.6,5.2,5.6c48.3-0.1,96.6-0.2,144.9,0
		c5,0,5.1-2.4,5.1-6.5c-0.2-26.8-0.1-53.7-0.2-80.5c2,1.9,1.5,4.4,1.5,6.8c0,24.7-0.1,49.4,0.1,74.1c0.1,5.7-1.4,7.9-7,7.9
		c-48-0.2-95.9-0.2-143.9,0c-5.9,0-6.8-2.8-6.8-8.2c0.2-23.7,0.1-47.5-1.5-71.2c0,25.2,0,50.4,0,75.6c-0.6,0-1.2,0-1.8,0
		c0-22.5,0.1-45-0.1-67.5C198.3,188,198.1,181.7,203.1,176.9z"/>
	<path class="st6" d="M280,324.7c-4.7,0.9-7.7,0.1-4.9-7.3c1.3-3.3,0.5-7.7,0.3-11.5c-0.2-4.1,0.3-6.4,5.2-6.4c5.1,0,5,2.7,5,6.6
		c0.1,5-0.7,10,1,15C287.8,324.4,287.2,324.6,280,324.7z"/>
	<path class="st7" d="M280.7,287.5c-3.1,0-4.9-1.7-5.2-4.8c-0.3-3.5,1.8-5.9,4.8-6c3.1-0.1,5.2,2.2,5.1,5.8
		C285.4,285.6,283.6,287.3,280.7,287.5z"/>
</g>
<g class="st8">
	<path class="st9" d="M383,195.5h50v-15.9c0-4.2-3.4-7.7-7.7-7.7h-41.7c-4.1,0-7.4,3.3-7.4,7.4v9.3
		C376.2,192.4,379.3,195.5,383,195.5z"/>
	<path class="st10" d="M416,207.4h-65.8v-15.9c0-4.9,4-9,9-9h56.1c4.8,0,8.7,3.9,8.7,8.7v8.2C423.9,203.8,420.4,207.4,416,207.4z"/>
	<ellipse class="st3" cx="403.7" cy="188.5" rx="1.3" ry="1"/>
	<ellipse class="st3" cx="408.6" cy="188.5" rx="1.3" ry="1"/>
	<ellipse class="st3" cx="413.7" cy="188.5" rx="1.3" ry="1"/>
	<ellipse class="st3" cx="382.1" cy="195" rx="1.3" ry="1"/>
	<ellipse class="st3" cx="387.1" cy="195" rx="1.3" ry="1"/>
	<ellipse class="st3" cx="392.1" cy="195" rx="1.3" ry="1"/>
	<ellipse class="st3" cx="412.7" cy="177.7" rx="1.3" ry="1"/>
	<ellipse class="st3" cx="417.6" cy="177.7" rx="1.3" ry="1"/>
	<ellipse class="st3" cx="422.6" cy="177.7" rx="1.3" ry="1"/>
</g>
<path class="st11" d="M144.2,155.8c3.1,14.9-2.3,24.3-15.2,27.2c-1.8,0.4-3.8,0.5-5.7,0.6c-19.3,0-38.7,0-58,0
	c-2.6,0-6.3,0.8-6.3-2.9c0-3.9,3.7-2.9,6.3-2.9c19.1-0.1,38.2,0.1,57.4-0.1c12.3-0.1,19.9-10,15-19.2c-2.2-4-5.7-6.9-10.7-7.3
	c-3.4-0.3-4-1.5-4.3-4.3c-1.4-13.2-12.3-24.6-25.7-26.9c-13.9-2.5-26.8,3.2-34.4,15.6c-1.6,2.6-2.6,3-5.6,1.4
	c-10-5.4-20.7-4.6-28.9,1.6c-7.5,5.7-10.5,15.5-7.3,24.2s12.3,14.5,23.4,15c2.5,0.1,6.3-0.9,6,3.1c-0.3,3.7-4,2.9-6.5,2.7
	c-13.1-0.8-22.9-6.4-28.2-17.6c-5.1-10.9-2.8-21,5.7-29.5c8.8-8.7,20-11.2,32.5-7.5c3.3,1,4.9,0.5,7.1-2
	c12.5-13.9,31.4-17.3,49.1-8.8c2.3,1.1,4,1.9,5.9-0.3c0.2-0.3,0.7-0.5,1.1-0.6c10.6-2.5,17.8-9.6,26.4-15.1
	c15.4-9.7,36.7-3.3,45,12.4c1.3,2.5,2.7,4.4,5.6,5.8c7.8,3.6,11.9,12.1,10.2,19.5c-1.9,8.6-9.5,15.1-18.6,15.8
	c-3.6,0.3-7.2,0.1-10.8,0.1c-2.3,0-3.6-1-3.5-3.2c0.1-1.9,1.5-2.6,3.5-2.6c2.8,0,5.5,0.1,8.3,0c7-0.3,12.3-4.1,14-9.9
	c1.7-6-0.6-11.5-7-14.6c-3.7-1.8-5.7-4.1-7.1-7.6c-3.6-9-11.5-13.2-21.4-14c-9.2-0.7-17.3,2.4-22.3,9.7c-2.8,4.1-6,6.2-11.2,6.1
	c-1.4,0-2.9,0.5-4.2,1c-4,1.3-6.3,2.9-2.2,6.7c3.7,3.5,5.6,8.1,6.9,12.8c1.4,5.1,8,9.6,13.9,9.7c4.2,0.1,8.5,0.1,12.7,0
	c2.3,0,3.9,0.9,3.8,2.9c0,2-1.6,3-3.9,2.9C151.5,155.8,148.1,155.8,144.2,155.8z"/>
<path class="st11" d="M414.2,95.1c2.5,12.6-1.8,20.5-12.2,23.1c-1.5,0.4-3,0.5-4.5,0.5c-15.5,0-31,0-46.5,0c-2.1,0-5,0.7-5.1-2.5
	c0-3.3,3-2.4,5-2.4c15.3,0,30.7,0.1,46-0.1c9.8-0.1,15.9-8.5,12-16.2c-1.7-3.4-4.5-5.9-8.6-6.2c-2.7-0.2-3.2-1.3-3.5-3.7
	c-1.1-11.2-9.9-20.8-20.6-22.8c-11.2-2.1-21.5,2.7-27.6,13.2c-1.3,2.2-2,2.6-4.5,1.2c-8-4.6-16.6-3.9-23.2,1.3
	c-6.1,4.8-8.4,13.1-5.8,20.4c2.6,7.4,9.9,12.3,18.8,12.7c2,0.1,5.1-0.8,4.8,2.6c-0.2,3.1-3.2,2.5-5.3,2.3
	c-10.5-0.7-18.4-5.4-22.6-14.9c-4.1-9.2-2.3-17.8,4.6-24.9c7-7.4,16.1-9.5,26-6.4c2.7,0.8,3.9,0.4,5.7-1.7
	c10-11.8,25.2-14.6,39.4-7.5c1.8,0.9,3.2,1.6,4.7-0.2c0.2-0.2,0.5-0.4,0.9-0.5c8.5-2.1,14.3-8.1,21.2-12.7
	c12.4-8.2,29.4-2.8,36.1,10.5c1.1,2.1,2.1,3.7,4.5,4.9c6.2,3.1,9.5,10.2,8.2,16.5c-1.5,7.3-7.6,12.8-14.9,13.4
	c-2.9,0.2-5.8,0.1-8.7,0.1c-1.9,0-2.9-0.9-2.8-2.7c0.1-1.6,1.2-2.2,2.8-2.2c2.2,0,4.4,0.1,6.6,0c5.6-0.3,9.9-3.5,11.2-8.3
	c1.4-5.1-0.5-9.7-5.6-12.4c-2.9-1.5-4.6-3.5-5.7-6.4c-2.9-7.6-9.2-11.2-17.1-11.9c-7.4-0.6-13.9,2-17.9,8.2c-2.2,3.5-4.8,5.2-9,5.1
	c-1.1,0-2.3,0.5-3.4,0.9c-3.2,1.1-5,2.4-1.8,5.7c2.9,3,4.5,6.8,5.6,10.8c1.2,4.3,6.4,8.1,11.2,8.2c3.4,0.1,6.8,0,10.2,0
	c1.8,0,3.1,0.7,3.1,2.5c0,1.7-1.3,2.5-3.1,2.5C420,95.1,417.3,95.1,414.2,95.1z"/>
<g class="st12">
	
		<image style="overflow:visible;opacity:0.75;enable-background:new    ;" width="721" height="196" xlink:href="DEA8EED.png"  transform="matrix(0.2383 0 0 0.2383 201.3577 322.4825)">
	</image>
	
		<image style="overflow:visible;enable-background:new    ;" width="888" height="363" xlink:href="DEA8EEE.png"  transform="matrix(0.2389 0 0 0.2389 174.1162 295.3947)">
	</image>
</g>
<g>
	<path class="st13" d="M425.2,286.7l-5.5,2c-2.2,0.8-4.2,2.3-5.7,4.3c-1.4,1.9-3,4-3,4l-7.8,9.4l-6-45.8l19.1,11.3l19.1,12.1
		L425.2,286.7z"/>
	<line class="st14" x1="397.3" y1="260.6" x2="416.3" y2="290.5"/>
</g>
</svg>
