<?xml version="1.0" encoding="utf-8"?>
<!-- Generator: Adobe Illustrator 25.3.0, SVG Export Plug-In . SVG Version: 6.00 Build 0)  -->
<svg version="1.1" id="Layer_1" xmlns="http://www.w3.org/2000/svg" xmlns:xlink="http://www.w3.org/1999/xlink" x="0px" y="0px"
	 viewBox="0 0 500 500" style="enable-background:new 0 0 500 500;" xml:space="preserve">
<style type="text/css">
	.st0{fill:none;stroke:#FFFFFF;stroke-width:35;stroke-miterlimit:10;}
</style>
<circle class="st0" cx="250" cy="250" r="172.5"/>
<path class="st0" d="M172.4,95.9c25.2,23.6,42.4,45.7,53.7,62.1c17.8,25.7,28.5,48.5,37.3,67.3c8.4,17.8,14.2,32.5,16.4,38.3
	c20.6,54.5,17.9,122.3,15.7,152.8"/>
<path class="st0" d="M110,349.2c23.7-16.7,43.7-27,57.8-33.4c10.4-4.8,15.9-6.6,38.6-16.7c15.4-6.9,20.7-9.5,32.1-14.1
	c7.1-2.8,17.7-7.1,31.9-11.2c5.4-1.5,21.3-6.2,42.7-9.4c28.4-4.4,50.9-4.2,61.7-3.9c13,0.4,23.9,1.5,32.1,2.6"/>
<path class="st0" d="M352.2,111.1c-3.6,9.1-9,21.5-17.2,35.1c-17.9,29.5-44.1,56.8-68,69.4c-45.6,23.8-108.9,7.7-160.9-37.3"/>
</svg>
